<svg id="eXCcwEyji8g1" xmlns="http://www.w3.org/2000/svg" xmlns:xlink="http://www.w3.org/1999/xlink" viewBox="0 0 443 960" shape-rendering="geometricPrecision" text-rendering="geometricPrecision" project-id="cdf7c541012540368d93cc389e3a90f8" export-id="541b0fbeaae64ce7b2243a359448cc19" cached="false"><g transform="matrix(0 1 1 0-258.301788 0.00202)"><g><g><path d="M430.909,298.665c-10.793-8.722-20.03-15.861-26.745-20.781-31.323-22.935-49.135-21.326-69.512,2.158-.238.287-17.732,21.368-48.678,57.362c37.449-1.613,68.72-13.679,91.22-26.248c20.111-11.214,30.986-13.168,53.715-12.491Z"/><path d="M37.37,637.379c1.373,5.614,7.2,10.32,12.976,10.52c9.629.333,25.305.871,44.434,1.514l6.954,28.913c1.165,4.845,6.149,8.771,11.132,8.771h35.443c4.983,0,9.967-3.928,11.132-8.771l6.394-26.586c13.213.42,26.633.84,39.812,1.239l6.58,27.36c1.165,4.845,6.149,8.771,11.132,8.771h35.443c4.983,0,9.967-3.928,11.132-8.771l6.103-25.376c11.983.305,23.965.672,35.945,1.077l6.085,25.305c1.166,4.845,6.148,8.772,11.133,8.772h35.443c4.981,0,9.967-3.929,11.132-8.772l5.436-22.603c63.954,2.74,127.894,5.853,191.897,6.977l6.542,27.205c1.166,4.845,6.148,8.771,11.132,8.771h35.444c4.982,0,9.967-3.928,11.132-8.771l6.465-26.883c12.657-.119,25.312-.343,37.965-.683l6.388,26.559c1.166,4.845,6.148,8.771,11.132,8.771h35.442c4.983,0,9.968-3.928,11.133-8.771l7.175-29.834c11.26-.766,22.516-1.657,33.753-2.722l7.83,32.557c1.165,4.845,6.148,8.771,11.132,8.771h35.443c4.982,0,9.967-3.928,11.132-8.771l10.248-42.61c14.731-2.579,29.396-5.537,43.967-8.977c14.595-3.446,29.079-7.379,43.404-11.82c5.521-1.711,9.974-7.866,9.98-13.645.019-15.745.051-43.77.051-44.367c0-8.306-3.471-18.775-7.436-25.977-9.09-16.508-28.002-24.59-44.84-30.786-25.477-9.375-52.109-15.588-78.459-21.942-11.249-2.713-22.428-5.542-33.585-8.609-16.737-4.601-33.427-9.37-50.129-14.093-33.555-9.487-66.788-19.721-99.341-31.852c3.29-8.886-1.223-20.996-13.559-20.996-7.6,0-12.22,4.602-13.89,10.21-10.755-4.451-21.428-9.139-31.992-14.132c5.078-8.92.908-23.264-12.517-23.264-7.689,0-12.33,4.712-13.948,10.411-11.324-5.628-22.763-11.531-33.94-17.865c6.526-8.694,2.697-24.765-11.515-24.765-7.204,0-11.735,4.134-13.611,9.341-10.104-6.782-19.704-14.062-28.464-21.979-6.207-5.608-12.053-11.656-19.068-16.296-20.469-13.535-48.863-7.601-68.967,3.757-30.699,17.314-99.872,38.339-158.737,20.467-24.736-7.51-48.536-20.604-66.569-39.315-9.182-9.527-16.161-20.369-22.466-31.925-5.51-10.1-11.723-20.819-24.309-22.393-24.824-3.104-47.586,31.792-61.179,48.147C22.498,341.517,3.852,385.088,0.534,430.44c-3.155,43.142,8.291,88.042,17.902,129.854c5.931,25.789,12.65,51.379,18.934,77.085ZM47.993,367.924c86.626,59.598,216.048,95.763,371.565,125.382c157.008,29.909,224.76,115.965,238.396,135.531-11.979-.195-23.956-.497-35.93-.889-23.655-.774-47.295-1.871-70.928-3.174-58.35-3.215-116.643-7.675-174.938-11.583-4.41-.273-8.788-.544-13.149-.812-24.576-52.172-73.598-84.416-123.958-108.656-50.977-24.538-111.077-39.56-152.127-80.175-12.568-12.435-23.289-26.624-32.127-41.925-.991-1.719-8.06-11.512-6.804-13.699Z"/></g></g></g></svg>
