<svg width="16" height="17" viewBox="0 0 16 17" fill="none" xmlns="http://www.w3.org/2000/svg">
<path d="M5.73728 6.60819L7.64972 3.16579L8.03221 2.40082L10.3271 6.60819L13.0046 6.99068L14.5345 7.75566L11.4746 10.8156L11.8571 13.1105V15.4054L7.64972 13.1105L3.82484 15.0229L4.20733 10.4331L1.52991 7.37317L5.73728 6.60819Z" fill="#7E8E9D"/>
<g clip-path="url(#clip0_15_1659)">
<path d="M1.55664 7.76215C1.34781 7.56903 1.46125 7.2199 1.74371 7.18641L5.74609 6.71168C5.86121 6.69803 5.96121 6.62574 6.00976 6.52047L7.69792 2.86061C7.81705 2.60232 8.18425 2.60227 8.30338 2.86056L9.99154 6.52039C10.0401 6.62566 10.1394 6.69815 10.2546 6.7118L14.2572 7.18641C14.5396 7.2199 14.6527 7.56913 14.4439 7.76226L11.4852 10.4989C11.4001 10.5776 11.3622 10.6948 11.3848 10.8085L12.17 14.7616C12.2254 15.0406 11.9285 15.2568 11.6803 15.1178L8.16343 13.1487C8.06227 13.0921 7.93938 13.0924 7.83822 13.149L4.32096 15.1173C4.07275 15.2563 3.77529 15.0406 3.83073 14.7616L4.6161 10.8087C4.63869 10.695 4.60089 10.5776 4.51578 10.4989L1.55664 7.76215Z" stroke="#7E8E9D" stroke-width="1.72772" stroke-linecap="round" stroke-linejoin="round"/>
</g>
<defs>
<clipPath id="clip0_15_1659">
<rect width="16" height="16" fill="white" transform="translate(0 0.870972)"/>
</clipPath>
</defs>
</svg>
