<svg width="110" height="110" viewBox="0 0 110 110" fill="none" xmlns="http://www.w3.org/2000/svg">
<path d="M55 35.1978C41.1658 35.1978 29.9062 46.452 29.9062 60.2915C29.9062 74.1309 41.1605 85.3852 55 85.3852C68.8341 85.3852 80.0937 74.1256 80.0937 60.2915C80.0937 46.4573 68.8341 35.1978 55 35.1978ZM78.1227 57.5834C77.8717 59.5597 76.9797 61.5093 75.4414 63.288C74.8645 60.6867 73.7535 58.0748 72.2312 55.5964C73.8657 53.7002 74.6455 51.585 74.5494 49.4752C75.6871 50.7411 76.6111 52.1299 77.3055 53.6148C77.6901 54.8913 77.9678 56.2214 78.1227 57.5834ZM39.8091 57.3965C38.4524 60.0351 37.4589 62.7592 36.9248 65.4245C34.2328 63.336 32.6143 60.9004 32.0428 58.406C32.7105 55.9383 33.971 53.5934 35.6963 51.4836C36.177 53.5881 37.5444 55.6391 39.8091 57.3965ZM36.4548 50.6022C38.3029 48.5618 40.605 46.7671 43.2169 45.3357C43.5107 46.6229 44.344 47.8728 45.7327 48.9518C43.6709 51.1844 41.8602 53.6789 40.402 56.2854C38.2281 54.5922 36.9195 52.6213 36.4548 50.6022ZM41.0483 58.2724C43.5695 59.8962 46.6568 60.9912 49.931 61.5467C49.4717 64.5539 49.1352 67.5504 48.9536 70.3599C45.0597 69.6976 41.3955 68.3943 38.399 66.4661C38.8851 63.774 39.7985 60.9912 41.0483 58.2724ZM41.5985 57.124C42.9392 54.4373 44.6003 51.8414 46.4912 49.4859C48.0348 50.4794 49.9203 51.1471 51.9287 51.4889C51.2343 54.2824 50.6254 57.2683 50.134 60.2701C46.9879 59.736 44.0235 58.6837 41.5985 57.124ZM52.9756 51.6385C55.0213 51.8628 57.1472 51.7613 59.1288 51.318C60.0262 54.0741 60.8114 57.0226 61.4417 59.9977C58.3276 60.6974 54.9946 60.863 51.7791 60.5051C52.1049 57.4766 52.5109 54.464 52.9756 51.6385ZM51.6456 61.787C54.9893 62.1609 58.4665 61.99 61.7034 61.2583C62.2909 64.2387 62.7129 67.2192 62.9372 70.0181C59.0861 70.8834 54.9572 71.0864 50.9886 70.643C51.1115 67.8281 51.3358 64.8156 51.6456 61.787ZM60.133 51.0563C61.1746 50.7518 62.1627 50.3459 63.0601 49.8438C63.8186 49.4165 64.4649 48.9411 65.0043 48.439C67.1996 50.5595 69.1225 52.9524 70.6715 55.4736C69.8223 56.2694 68.8074 57.0119 67.6216 57.6795C66.2115 58.4701 64.6625 59.111 63.0227 59.5864C62.2322 56.654 61.2547 53.7536 60.133 51.0563ZM68.1344 58.8493C69.3682 58.1549 70.4312 57.3858 71.3125 56.5579C72.7547 59.1217 73.8016 61.7924 74.3517 64.431C73.3048 65.4138 72.0443 66.3326 70.5754 67.1605C68.8341 68.1433 66.9112 68.9284 64.8922 69.516C64.6144 66.7331 64.0856 63.7847 63.3485 60.8416C65.0471 60.3395 66.6655 59.6772 68.1344 58.8493ZM76.1624 50.5916C75.655 49.8171 75.0728 49.08 74.4265 48.3856C74.325 47.8354 74.1488 47.2853 73.9244 46.7404C74.7897 47.9422 75.5375 49.2349 76.1624 50.5916ZM71.5635 54.5495C69.9291 52.1192 67.894 49.8384 65.5705 47.8461C66.5694 46.687 67.0447 45.3944 66.9913 44.1018C69.6246 45.2662 71.9321 46.8206 73.7909 48.6687C73.8817 50.6984 73.1339 52.7334 71.5635 54.5495ZM72.8935 45.4051C73.2674 46.1315 73.5292 46.874 73.668 47.6271C71.8199 45.8805 69.5231 44.4543 66.9112 43.4395C66.6655 42.1522 65.8857 40.8863 64.5557 39.7967C65.4156 39.8821 66.2168 40.0744 66.9806 40.3255C69.224 41.6768 71.2217 43.4021 72.8935 45.4051ZM51.0954 37.5159C52.8741 37.0833 54.797 36.9604 56.6558 37.1367C56.2231 37.7669 55.7371 39.0756 55.2243 41.0893C55.2564 41.0946 55.2937 41.1 55.3258 41.1053C56.143 39.1343 56.9229 37.8578 57.6119 37.2595C59.5935 37.564 61.4577 38.221 62.9479 39.2145C63.231 39.2091 63.5088 39.2091 63.7758 39.2198C62.7343 38.5201 61.5164 37.9913 60.2131 37.6014C62.0826 38.034 63.872 38.6857 65.5385 39.5403C62.8251 38.9367 59.5081 39.4762 55.9027 41.3243C55.924 41.3403 55.9454 41.3563 55.9614 41.3724C58.7229 40.1973 61.3241 39.6738 63.653 39.7433C64.8548 40.7314 65.5652 41.8745 65.7842 43.0442C62.8838 42.0828 59.6309 41.602 56.1857 41.7196C56.1911 41.7409 56.1964 41.7623 56.1964 41.7836C59.663 41.8584 62.9319 42.5208 65.8536 43.6478C65.907 44.8122 65.4797 45.9873 64.5717 47.0342C62.0025 44.9938 59.1182 43.3006 56.0629 42.1415C56.0469 42.1629 56.0255 42.1789 56.0095 42.2003C58.8992 43.5303 61.6286 45.3784 64.0643 47.5683C63.5782 48.0277 62.9906 48.455 62.307 48.8396C61.4951 49.2989 60.6031 49.6622 59.6576 49.9399C58.4131 47.1143 57.0243 44.5451 55.5501 42.4567C55.5181 42.4673 55.486 42.4727 55.454 42.4834C56.6344 44.652 57.7508 47.2852 58.7496 50.1803C56.9549 50.5809 55.032 50.6824 53.1839 50.474C53.6967 47.5042 54.2629 44.7802 54.8664 42.5208C54.8344 42.5154 54.797 42.5101 54.765 42.5047C53.8623 44.7214 53.0023 47.4081 52.2385 50.3405C50.4224 50.0307 48.7185 49.4271 47.3191 48.5298C49.4182 46.0834 51.7631 43.9469 54.2415 42.3124C54.2362 42.3071 54.2255 42.2964 54.2148 42.2911C54.2041 42.2804 54.1881 42.2697 54.1721 42.259C51.4693 43.7386 48.9108 45.7309 46.6301 48.0437C45.3748 47.0716 44.6217 45.9392 44.3546 44.7748C47.255 43.3487 50.4972 42.3498 53.9317 41.9172C53.9264 41.8958 53.921 41.8745 53.921 41.8531C50.4598 42.0881 47.1856 42.9053 44.2585 44.1712C44.1624 43.0015 44.5469 41.8264 45.4069 40.7688C48.0242 40.4269 50.9459 40.6406 54.0439 41.4952C54.0546 41.4739 54.0759 41.4578 54.0919 41.4365C51.1542 40.4109 48.3713 40.0317 45.8876 40.2293C46.4057 39.7165 47.0413 39.2412 47.7998 38.8139C48.5423 38.3972 49.3488 38.0554 50.1981 37.7883C51.5121 38.2477 52.9863 39.3694 54.5406 41.1801C54.5727 41.1694 54.6047 41.1641 54.6368 41.1534C53.3709 39.2358 52.1691 38.0447 51.0954 37.5159ZM49.6479 37.6281C48.7185 37.9165 47.8372 38.2904 47.0307 38.7444C46.1974 39.2145 45.4923 39.7432 44.9208 40.3094C43.7457 40.4804 42.6454 40.7955 41.6359 41.2335C44.0181 39.5616 46.7262 38.3225 49.6479 37.6281ZM37.1972 45.3036C38.0411 44.2994 38.9705 43.3754 39.9694 42.5261C41.2834 41.7783 42.7576 41.2228 44.3813 40.9077C43.4306 42.0774 43.0033 43.3807 43.1154 44.668C40.4768 45.9553 38.1587 47.6164 36.2892 49.5553C36.1717 48.1185 36.4815 46.6763 37.1972 45.3036ZM36.145 46.6443C35.6322 47.8675 35.4185 49.1334 35.5254 50.3939C33.9283 52.2474 32.7265 54.3198 32.0214 56.5258C32.6143 52.883 34.0618 49.5179 36.145 46.6443ZM31.7116 60.2915C31.7116 60.1793 31.717 60.0671 31.7223 59.955C31.749 59.7894 31.7651 59.6238 31.7971 59.4582C32.374 61.9847 34.0138 64.4417 36.7325 66.5569C36.583 67.5771 36.5028 68.5813 36.5028 69.5694C36.4975 71.1451 36.6898 72.5766 37.053 73.8478C36.0862 73.1001 35.269 72.2989 34.5746 71.4763C32.7532 68.1486 31.7116 64.3349 31.7116 60.2915ZM35.5788 73.1214C36.1022 73.6609 36.6791 74.1897 37.3307 74.6918C37.5337 75.2473 37.7901 75.7547 38.0625 76.2408C37.1491 75.274 36.3159 74.2324 35.5788 73.1214ZM38.0091 70.627C38.0091 69.6442 38.0839 68.6347 38.2228 67.6038C41.2513 69.5481 44.9582 70.8674 48.8895 71.535C48.836 72.5926 48.8093 73.6182 48.804 74.6063C48.7986 76.182 48.8627 77.5547 48.9803 78.7298C45.1185 78.0729 41.4863 76.7856 38.5112 74.8734C38.18 73.6182 38.0038 72.2027 38.0091 70.627ZM39.916 78.0088C39.462 77.3304 39.0667 76.5719 38.7676 75.7066C41.6946 77.5868 45.2733 78.858 49.0711 79.5043C49.3007 81.2029 49.6693 82.3887 50.1447 83.0617C46.3042 82.2445 42.8056 80.4765 39.916 78.0088ZM61.3562 82.6878C60.3841 82.9655 59.3852 83.1845 58.365 83.3288C56.2498 83.5745 54.0866 83.5958 51.9714 83.3715C51.9073 83.3608 51.8486 83.3555 51.7845 83.3501C51.4533 82.7145 51.2023 81.518 51.0527 79.7821C54.9252 80.2094 58.9633 80.0171 62.7129 79.1732C62.4191 80.8023 61.9491 81.9721 61.3562 82.6878ZM50.9939 79.0129C50.9192 77.8432 50.8764 76.4705 50.8818 74.8948C50.8818 73.9066 50.9031 72.8811 50.9405 71.8181C54.9519 72.2668 59.1288 72.0585 63.0174 71.1825C63.0815 72.2401 63.1082 73.2656 63.1082 74.2484C63.1028 75.8241 63.012 77.2022 62.8464 78.3827C59.0274 79.248 54.9305 79.4509 50.9939 79.0129ZM73.5986 74.2858C70.9279 77.8272 67.2691 80.5833 63.0387 82.143C63.7224 81.3845 64.2726 80.2414 64.6251 78.6764C66.6014 78.0996 68.4709 77.3304 70.1748 76.3743C71.6063 75.5678 72.8348 74.6704 73.8603 73.709C73.7802 73.9119 73.684 74.0989 73.5986 74.2858ZM74.1594 72.849C73.1179 73.8211 71.8733 74.7345 70.4151 75.5517C68.6845 76.5239 66.783 77.3037 64.7747 77.8913C64.983 76.7001 65.0951 75.3167 65.1005 73.741C65.1005 72.7582 65.0631 71.7327 64.9883 70.6804C67.0341 70.0822 68.973 69.2863 70.7356 68.2982C72.2205 67.4596 73.4918 66.5355 74.5494 65.542C74.7043 66.5515 74.7897 67.5557 74.7844 68.5439C74.7737 70.1089 74.56 71.5511 74.1594 72.849ZM75.2491 71.7166C75.6764 70.3973 75.9007 68.9445 75.9007 67.3688C75.9061 66.3806 75.8206 65.3871 75.655 64.383C77.0438 62.7752 77.9037 61.0339 78.2616 59.2606C78.2776 59.6024 78.2883 59.9443 78.2883 60.2861C78.2883 64.383 77.22 68.2341 75.3559 71.5831C75.3185 71.6312 75.2865 71.6739 75.2491 71.7166Z" fill="white"/>
<path fill-rule="evenodd" clip-rule="evenodd" d="M104.557 80.5192C71.7665 80.5192 38.9759 80.5192 6.1853 80.5192C6.1853 72.4697 6.1853 64.4256 6.1853 56.3762C38.9279 53.8017 71.82 53.8017 104.557 56.3762C104.557 64.4256 104.557 72.4697 104.557 80.5192Z" fill="#156EAA"/>
<path d="M25.115 26.1334C24.7624 26.1654 24.4099 26.1975 24.0574 26.2295C24.0574 24.1945 24.0574 22.1541 24.0574 20.119C24.4099 20.119 24.7678 20.119 25.1203 20.119C25.1203 22.122 25.1203 24.125 25.115 26.1334Z" fill="white"/>
<path d="M26.7387 20.1136C27.1553 20.1136 27.5719 20.1136 27.9939 20.1136C28.6616 21.5879 29.3346 23.0193 29.9969 24.4081C29.9649 24.4455 29.9381 24.4775 29.9061 24.5149C29.9114 23.0461 29.9168 21.5772 29.9275 20.1136C30.2533 20.1136 30.5791 20.1136 30.9103 20.1136C30.8996 21.9618 30.8943 23.8099 30.8836 25.6526C30.4616 25.6847 30.045 25.7167 29.623 25.7488C28.9607 24.3814 28.293 22.982 27.6253 21.5344C27.6574 21.4971 27.6841 21.465 27.7161 21.4276C27.7108 22.9179 27.7055 24.4081 27.7001 25.8983C27.3743 25.9251 27.0485 25.9518 26.7227 25.9838C26.728 24.0289 26.7333 22.0739 26.7387 20.1136Z" fill="white"/>
<path d="M31.8452 20.1136C33.1752 20.1136 34.5052 20.1136 35.8352 20.1136C35.8352 20.4288 35.8298 20.7439 35.8298 21.0644C34.4998 21.0804 33.1698 21.0965 31.8398 21.1125C31.8398 20.776 31.8452 20.4448 31.8452 20.1136ZM33.3247 20.5516C33.6666 20.5516 34.0084 20.5463 34.3503 20.5463C34.3396 22.1701 34.3289 23.7992 34.3182 25.423C33.9764 25.4443 33.6345 25.4657 33.2927 25.4871C33.3034 23.8419 33.314 22.1968 33.3247 20.5516Z" fill="white"/>
<path d="M36.7752 20.1083C37.117 20.1083 37.4589 20.1083 37.8007 20.1083C37.79 21.8122 37.7794 23.5214 37.7633 25.2253C37.4215 25.2413 37.0796 25.2627 36.7378 25.2787C36.7538 23.5535 36.7645 21.8335 36.7752 20.1083ZM37.1437 20.1083C38.2334 20.1083 39.3283 20.1083 40.418 20.1083C40.418 20.4127 40.4127 20.7119 40.4127 21.0163C39.323 21.027 38.228 21.0377 37.1384 21.0484C37.1437 20.7332 37.1437 20.4181 37.1437 20.1083ZM37.133 22.2341C38.0892 22.2128 39.0399 22.1914 39.996 22.1754C39.996 22.4798 39.9907 22.779 39.9907 23.0834C39.0346 23.1101 38.0785 23.1368 37.1277 23.1689C37.1277 22.8591 37.1277 22.5439 37.133 22.2341ZM37.117 24.3226C38.2067 24.2745 39.3016 24.2318 40.3913 24.1891C40.3913 24.4935 40.3859 24.7927 40.3859 25.0971C39.291 25.1452 38.2013 25.1986 37.1117 25.2574C37.1117 24.9476 37.117 24.6378 37.117 24.3226Z" fill="white"/>
<path d="M41.8441 20.103C42.1859 20.103 42.5278 20.103 42.8696 20.103C42.8589 21.7375 42.8482 23.3666 42.8376 25.001C42.4957 25.0117 42.1539 25.0277 41.812 25.0384C41.828 23.3933 41.8334 21.7481 41.8441 20.103ZM42.2393 22.1487C42.8696 22.1381 43.5052 22.1274 44.1355 22.122C44.2423 22.122 44.3331 22.0953 44.4133 22.0473C44.4934 21.9992 44.5575 21.9297 44.6002 21.8443C44.6429 21.7588 44.6696 21.6573 44.6696 21.5452C44.6696 21.433 44.6483 21.3315 44.6055 21.246C44.5628 21.1606 44.4987 21.0912 44.4186 21.0484C44.3385 21.0057 44.2477 20.979 44.1355 20.979C43.5052 20.9843 42.8749 20.9897 42.2393 20.9897C42.2393 20.6906 42.2447 20.3968 42.2447 20.0977C42.9016 20.0977 43.564 20.0977 44.221 20.0977C44.5201 20.0977 44.7818 20.1564 45.0115 20.2739C45.2358 20.3914 45.4121 20.5624 45.5349 20.776C45.6578 20.995 45.7219 21.2461 45.7165 21.5291C45.7165 21.8176 45.6525 22.0686 45.5243 22.2876C45.3961 22.5066 45.2198 22.6775 44.9901 22.8004C44.7604 22.9232 44.4987 22.9873 44.1996 22.9927C43.5426 23.0034 42.8803 23.0194 42.2233 23.0354C42.2393 22.747 42.2393 22.4479 42.2393 22.1487ZM43.3824 22.8698C43.7509 22.8111 44.1141 22.7523 44.4827 22.6936C44.9688 23.436 45.4548 24.1678 45.9409 24.8995C45.5243 24.9102 45.113 24.9209 44.6963 24.9369C44.2584 24.2532 43.8204 23.5642 43.3824 22.8698Z" fill="white"/>
<path d="M47.3351 20.1029C47.7517 20.1029 48.1737 20.1029 48.5903 20.1029C49.258 21.3101 49.931 22.5119 50.604 23.703C50.5719 23.7297 50.5452 23.7617 50.5132 23.7884C50.5185 22.5599 50.5185 21.3314 50.5239 20.1029C50.8497 20.1029 51.1755 20.1029 51.5067 20.1029C51.5013 21.6679 51.5014 23.2276 51.496 24.7873C51.074 24.7926 50.6521 24.798 50.2301 24.8033C49.5571 23.6282 48.8894 22.4531 48.2218 21.262C48.2538 21.2353 48.2805 21.2032 48.3126 21.1765C48.3072 22.3943 48.3019 23.6175 48.2965 24.8354C47.9707 24.8407 47.6395 24.8514 47.3137 24.8567C47.3191 23.2757 47.3244 21.6893 47.3351 20.1029Z" fill="white"/>
<path d="M54.7489 20.1029C54.9679 20.1029 55.1815 20.1029 55.4005 20.1029C56.0949 21.6626 56.7893 23.2169 57.489 24.7873C57.1204 24.7819 56.7519 24.7819 56.3833 24.7819C55.9453 23.7137 55.5127 22.6507 55.0747 21.5878C54.6421 22.6507 54.2041 23.7137 53.7661 24.7819C53.3975 24.7819 53.029 24.7873 52.6604 24.7873C53.3601 23.2169 54.0545 21.6626 54.7489 20.1029ZM53.6646 23.1795C54.6207 23.1795 55.5768 23.1795 56.5329 23.1795C56.5329 23.4626 56.5329 23.7457 56.5329 24.0288C55.5768 24.0235 54.6207 24.0235 53.6646 24.0288C53.6646 23.7457 53.6646 23.4626 53.6646 23.1795Z" fill="white"/>
<path d="M57.8948 20.1029C59.2248 20.1029 60.5548 20.1029 61.8848 20.1029C61.8848 20.3913 61.8848 20.6798 61.8901 20.9629C60.5601 20.9575 59.2301 20.9522 57.9001 20.9522C57.9001 20.6691 57.9001 20.386 57.8948 20.1029ZM59.3797 20.4875C59.7215 20.4875 60.0634 20.4875 60.4052 20.4875C60.4106 21.9296 60.4159 23.3772 60.4212 24.8193C60.0794 24.814 59.7375 24.8086 59.3904 24.8033C59.3904 23.3665 59.385 21.9296 59.3797 20.4875Z" fill="white"/>
<path d="M63.8399 24.8941C63.4874 24.8834 63.1295 24.8781 62.777 24.8674C62.7716 23.281 62.761 21.6893 62.7556 20.1029C63.1081 20.1029 63.466 20.1029 63.8186 20.1029C63.8239 21.7 63.8292 23.297 63.8399 24.8941Z" fill="white"/>
<path d="M66.2915 24.7979C65.9871 24.6377 65.7574 24.424 65.5865 24.1516C65.4209 23.8792 65.3354 23.5641 65.3354 23.2062C65.3354 22.7522 65.3301 22.2928 65.3301 21.8388C65.3301 21.4863 65.4102 21.1712 65.5704 20.9041C65.736 20.637 65.9657 20.4287 66.2648 20.2791C66.5639 20.1296 66.9111 20.0548 67.3064 20.0548C67.7016 20.0548 68.0488 20.1296 68.3479 20.2791C68.6471 20.4287 68.8821 20.6477 69.0477 20.9254C69.2132 21.2032 69.2987 21.529 69.2987 21.8922C69.304 22.3623 69.3041 22.8323 69.3094 23.3024C69.3094 23.6656 69.2293 23.986 69.069 24.2585C68.9088 24.5309 68.6738 24.7338 68.3747 24.8727C68.0755 25.0116 67.7283 25.0703 67.3331 25.0597C66.9378 25.0436 66.5906 24.9582 66.2915 24.7979ZM67.8138 24.0448C67.9527 23.9807 68.0595 23.8792 68.1343 23.751C68.2091 23.6228 68.2465 23.4733 68.2465 23.297C68.2411 22.8163 68.2411 22.3302 68.2358 21.8495C68.2358 21.6786 68.193 21.5237 68.1183 21.3955C68.0435 21.262 67.9313 21.1605 67.7924 21.091C67.6536 21.0163 67.488 20.9842 67.3064 20.9789C67.1194 20.9789 66.9592 21.0109 66.8203 21.0803C66.6814 21.1498 66.5746 21.2513 66.4998 21.3795C66.4251 21.5077 66.3877 21.6572 66.3877 21.8281C66.393 22.3035 66.393 22.7789 66.3984 23.2543C66.3984 23.4252 66.4357 23.5748 66.5159 23.7083C66.5906 23.8418 66.7028 23.9433 66.8417 24.0181C66.9805 24.0929 67.1461 24.1356 67.3277 24.141C67.5147 24.141 67.6749 24.1089 67.8138 24.0448Z" fill="white"/>
<path d="M70.8691 20.1083C71.2858 20.1083 71.7024 20.1083 72.1244 20.1083C72.8081 21.4169 73.4917 22.7523 74.1754 24.1143C74.1434 24.1463 74.1167 24.173 74.0846 24.2051C74.074 22.8377 74.0686 21.4757 74.0579 20.1083C74.3838 20.1083 74.7096 20.1083 75.0407 20.1083C75.0514 21.8656 75.0621 23.6282 75.0728 25.3855C74.6508 25.3588 74.2342 25.3375 73.8122 25.3108C73.1285 23.9647 72.4502 22.6454 71.7665 21.3528C71.7985 21.3208 71.8252 21.2941 71.8573 21.262C71.868 22.576 71.8733 23.89 71.884 25.2039C71.5582 25.1879 71.2323 25.1719 70.9012 25.1559C70.8905 23.4733 70.8798 21.7908 70.8691 20.1083Z" fill="white"/>
<path d="M78.2828 20.1136C78.5018 20.1136 78.7155 20.1136 78.9344 20.1136C79.6395 21.9618 80.3392 23.8579 81.0389 25.8129C80.6704 25.7808 80.3072 25.7541 79.9386 25.7274C79.5006 24.4188 79.0626 23.1262 78.6193 21.8603C78.192 23.1048 77.7647 24.3333 77.3374 25.5351C76.9688 25.5084 76.6003 25.4871 76.2371 25.4603C76.9154 23.7244 77.5991 21.9457 78.2828 20.1136ZM77.2199 23.6763C78.1706 23.7191 79.1267 23.7671 80.0775 23.8152C80.0775 24.1571 80.0828 24.4936 80.0828 24.8354C79.1321 24.7713 78.176 24.7179 77.2252 24.6591C77.2252 24.3333 77.2252 24.0075 77.2199 23.6763Z" fill="white"/>
<path d="M82.1768 20.1136C82.5186 20.1136 82.8604 20.1136 83.2023 20.1136C83.2076 22.0739 83.213 24.0342 83.2183 25.9891C82.8765 25.9571 82.54 25.9304 82.1981 25.9037C82.1874 23.9755 82.1821 22.0472 82.1768 20.1136ZM82.6468 24.8888C83.7044 24.9636 84.762 25.0384 85.8249 25.1238C85.8249 25.4924 85.8249 25.8663 85.8249 26.2348C84.7673 26.1334 83.7097 26.0426 82.6521 25.9518C82.6521 25.5939 82.6468 25.2414 82.6468 24.8888Z" fill="white"/>
<path d="M38.2814 28.708C38.5004 28.6919 38.7141 28.6706 38.9331 28.6545C39.6168 30.2837 40.3005 31.8807 40.9842 33.4564C40.6156 33.4992 40.2471 33.5419 39.8785 33.5846C39.4512 32.495 39.0239 31.4 38.5966 30.289C38.1532 31.4855 37.7099 32.7033 37.2719 33.9318C36.9034 33.9852 36.5348 34.0386 36.1663 34.0974C36.8713 32.2546 37.5764 30.4653 38.2814 28.708ZM37.1811 32.1905C38.1372 32.0677 39.0933 31.9608 40.0494 31.8594C40.0494 32.1638 40.0441 32.4629 40.0441 32.7674C39.088 32.8742 38.1319 32.9971 37.1758 33.1253C37.1758 32.8101 37.1758 32.5003 37.1811 32.1905Z" fill="white"/>
<path d="M45.6204 28.2218C46.0744 28.2005 46.523 28.1791 46.9771 28.1631C46.9717 29.7548 46.961 31.3412 46.9557 32.9329C46.6406 32.9543 46.3308 32.9757 46.0156 32.997C46.021 31.7578 46.0263 30.5186 46.0316 29.2794C46.0423 29.3489 46.0583 29.4183 46.069 29.4877C45.7165 30.4973 45.364 31.5121 45.0061 32.5377C44.7016 32.559 44.3972 32.5857 44.0981 32.6124C43.7562 31.6617 43.4144 30.7002 43.0725 29.7388C43.0832 29.6426 43.0992 29.5465 43.1099 29.4557C43.1046 30.7216 43.0939 31.9822 43.0885 33.2481C42.7787 33.2801 42.4636 33.3068 42.1538 33.3389C42.1645 31.6991 42.1752 30.0593 42.1859 28.4248C42.6399 28.3928 43.0885 28.3661 43.5426 28.3394C43.8844 29.413 44.2209 30.4812 44.5628 31.5388C44.9153 30.4225 45.2678 29.3168 45.6204 28.2218Z" fill="white"/>
<path d="M50.2354 28.0562C50.4543 28.0508 50.6733 28.0455 50.8923 28.0402C51.5867 29.5892 52.2811 31.1382 52.9755 32.6871C52.6069 32.6925 52.233 32.6978 51.8645 32.7085C51.4265 31.6509 50.9938 30.5987 50.5612 29.5357C50.1232 30.62 49.6798 31.7043 49.2419 32.7993C48.8733 32.8153 48.4994 32.8367 48.1309 32.8527C48.8359 31.2396 49.5356 29.6426 50.2354 28.0562ZM49.1404 31.1969C50.1018 31.1595 51.0633 31.1275 52.0247 31.1061C52.0247 31.3892 52.0247 31.6723 52.0247 31.9554C51.0633 31.9767 50.1018 32.0088 49.1404 32.0515C49.1404 31.7684 49.1404 31.48 49.1404 31.1969Z" fill="white"/>
<path d="M53.4028 28.0081C54.7382 27.9974 56.0735 28.0028 57.4142 28.0188C57.4142 28.3019 57.4142 28.585 57.4142 28.8681C56.0788 28.8521 54.7382 28.8467 53.4028 28.8574C53.4028 28.5743 53.4028 28.2912 53.4028 28.0081ZM54.8931 28.382C55.2349 28.382 55.5821 28.382 55.924 28.382C55.924 29.8135 55.924 31.245 55.924 32.6711C55.5768 32.6711 55.2349 32.6658 54.8877 32.6658C54.8931 31.245 54.8931 29.8135 54.8931 28.382Z" fill="white"/>
<path d="M58.3542 28.0295C58.6961 28.0349 59.0433 28.0402 59.3851 28.0509C59.3905 29.6159 59.3958 31.1863 59.3958 32.7513C59.0486 32.7406 58.7068 32.7299 58.3649 32.7193C58.3596 31.1596 58.3596 29.5946 58.3542 28.0295ZM58.7281 28.0349C59.8231 28.0563 60.9234 28.0883 62.0184 28.1257C62.0184 28.4141 62.0184 28.7026 62.0238 28.9856C60.9288 28.9429 59.8285 28.9109 58.7335 28.8842C58.7281 28.6064 58.7281 28.3233 58.7281 28.0349ZM58.7335 29.9738C59.6949 29.9952 60.651 30.0272 61.6125 30.0699C61.6125 30.3584 61.6125 30.6415 61.6178 30.9299C60.6564 30.8872 59.7003 30.8498 58.7388 30.8284C58.7335 30.54 58.7335 30.2569 58.7335 29.9738ZM58.7388 31.8807C59.8391 31.9127 60.9395 31.9554 62.0344 32.0142C62.0344 32.3026 62.0344 32.5911 62.0398 32.8742C60.9395 32.8101 59.8391 32.762 58.7388 32.7299C58.7388 32.4468 58.7388 32.1638 58.7388 31.8807Z" fill="white"/>
<path d="M64.31 32.8636C64.0108 32.7033 63.7812 32.4843 63.6263 32.2066C63.4714 31.9288 63.3912 31.603 63.3859 31.2291C63.3806 30.2143 63.3752 29.1941 63.3699 28.1792C63.7117 28.1952 64.0589 28.2112 64.4008 28.2273C64.4061 29.2582 64.4114 30.289 64.4168 31.3199C64.4168 31.5977 64.5022 31.8167 64.6732 31.9769C64.8441 32.1425 65.0791 32.2333 65.3836 32.26C65.6934 32.2867 65.9284 32.2279 66.0993 32.0891C66.2649 31.9502 66.3504 31.7419 66.3504 31.4588C66.345 30.4172 66.3397 29.3703 66.3343 28.3288C66.6762 28.3501 67.018 28.3715 67.3652 28.3929C67.3706 29.4344 67.3759 30.4813 67.3866 31.5229C67.3866 31.9075 67.3118 32.2279 67.1569 32.4897C67.002 32.7461 66.7777 32.933 66.4786 33.0505C66.1794 33.1627 65.8216 33.2054 65.3996 33.168C64.9723 33.1253 64.6091 33.0292 64.31 32.8636Z" fill="white"/>
<path d="M68.9783 28.4995C69.3201 28.5262 69.662 28.5476 70.0038 28.5743C70.0145 30.2461 70.0252 31.918 70.0359 33.5898C69.694 33.5471 69.3522 33.5097 69.005 33.467C68.9996 31.8112 68.989 30.1553 68.9783 28.4995ZM69.4002 30.604C70.0305 30.6628 70.6661 30.7215 71.2964 30.791C71.4033 30.8016 71.4941 30.7856 71.5742 30.7482C71.6543 30.7055 71.713 30.6467 71.7558 30.5559C71.7985 30.4705 71.8199 30.369 71.8252 30.2461C71.8252 30.1286 71.8039 30.0218 71.7558 29.9257C71.713 29.8295 71.649 29.7547 71.5688 29.696C71.4887 29.6372 71.3926 29.6052 71.2858 29.5945C70.6555 29.5357 70.0198 29.4823 69.3896 29.4289C69.3896 29.1298 69.3842 28.8253 69.3842 28.5262C70.0465 28.5743 70.7035 28.6277 71.3605 28.6811C71.6596 28.7078 71.9267 28.7933 72.151 28.9375C72.3807 29.0871 72.557 29.2793 72.6852 29.5251C72.8134 29.7708 72.8775 30.0485 72.8775 30.353C72.8775 30.6628 72.8187 30.9245 72.6959 31.1435C72.573 31.3625 72.3968 31.5227 72.1671 31.6189C71.9374 31.7204 71.6757 31.7524 71.3819 31.715C70.7249 31.6402 70.0626 31.5708 69.4002 31.5067C69.4056 31.2076 69.4056 30.9085 69.4002 30.604ZM70.554 31.4746C70.9172 31.4586 71.2857 31.4479 71.649 31.4319C72.1457 32.2759 72.6371 33.1305 73.1339 34.0065C72.7172 33.9477 72.3059 33.8836 71.8893 33.8302C71.446 33.0343 71.0026 32.2491 70.554 31.4746Z" fill="white"/>
<path d="M74.1007 82.9387C72.338 85.0753 70.4685 87.1103 68.4922 89.0279C64.4702 92.9271 59.9354 96.4363 55 99.4595C50.0645 96.4363 45.5297 92.9271 41.5077 89.0279C39.51 87.0943 37.6245 85.0325 35.8458 82.8746C32.5502 83.6171 29.292 84.5572 26.0818 85.6895C27.6629 85.4064 30.9692 84.8402 33.4155 84.6052C39.1735 91.6451 46.1333 97.6221 54.1827 102.445L54.5353 102.659H55.4646L55.8172 102.445C63.8613 97.6275 70.8211 91.6505 76.5737 84.6159C79.1429 84.8723 82.5988 85.4705 84.0409 85.7323C80.772 84.5732 77.455 83.6171 74.1007 82.8639V82.9387ZM95.8347 21.278L95.7759 20.6745L95.3112 20.2845C92.4002 17.8542 88.8588 15.6536 84.778 13.7467C81.2955 12.1176 77.4337 10.7075 73.2995 9.5484C65.5278 7.36913 58.6321 6.59998 55.0908 6.59998H54.9145C51.3732 6.59998 44.4775 7.37447 36.7058 9.5484C32.5716 10.7075 28.7098 12.1176 25.2272 13.7467C21.1464 15.6536 17.6051 17.8542 14.694 20.2845L14.2293 20.6745L14.1706 21.278C14.1546 21.4169 13.8287 24.7553 14.0317 30.1821C14.2133 35.1709 14.9023 42.9479 17.1297 51.6437C17.3487 52.509 17.5837 53.3689 17.8294 54.2182H20.9327C20.9327 54.2129 20.9274 54.2022 20.9274 54.1969H26.4717L20.6229 53.1499C20.42 52.4395 20.2277 51.7238 20.0461 51.0081C17.8775 42.5687 17.2045 35.016 17.0175 30.1714C16.868 26.2081 17.0122 23.3505 17.0923 22.1754C23.4218 17.069 31.6582 14.0512 37.5177 12.4114C44.5202 10.4511 51.3091 9.56977 54.9252 9.56977H55.1014C58.7175 9.56977 65.5064 10.4458 72.5089 12.4114C78.3684 14.0512 86.6048 17.069 92.9343 22.1754C93.0144 23.3558 93.1586 26.2081 93.0091 30.1714C92.8275 35.016 92.1545 42.5687 89.9805 51.0081C89.7936 51.7452 89.5906 52.4769 89.3876 53.2034L83.8219 54.1969H89.0992C89.0992 54.2022 89.0939 54.2129 89.0939 54.2182H92.1972C92.4429 53.3636 92.6726 52.509 92.8969 51.6437C95.1243 42.9426 95.808 35.1709 95.9949 30.1821C96.1765 24.7553 95.8507 21.4169 95.8347 21.278Z" fill="#F7E10E"/>
<path fill-rule="evenodd" clip-rule="evenodd" d="M16.0081 78.5803C15.8852 80.407 15.0466 81.7317 13.5671 82.5917C12.6163 83.1418 10.7148 83.7507 7.88919 84.4558C5.2559 85.1128 2.63329 85.8178 0 86.5336C0.112169 85.1929 0.235019 83.8469 0.352529 82.5009C0.470039 81.1548 0.603577 79.7981 0.737111 78.4521C2.57454 78.0355 4.41197 77.6349 6.23871 77.2289C6.15325 78.4094 6.06244 79.5845 5.9663 80.7649C7.15208 80.4872 8.34321 80.2254 9.53967 79.953C10.1806 79.8088 10.5278 79.4776 10.5759 78.9489C10.6881 77.6242 10.7896 76.2995 10.8964 74.9695C10.9445 74.3339 10.3249 73.8852 9.00554 73.6021C7.39779 73.2603 5.80606 72.9131 4.21968 72.5499C3.73361 72.4377 3.26357 72.176 2.83626 71.7914C1.93357 70.9742 1.56502 69.8365 1.7039 68.3836C1.83209 67.0643 1.96562 65.745 2.07779 64.4203C2.24871 62.428 3.05526 61.0553 4.50811 60.3235C5.44285 59.8535 7.2696 59.4796 9.97767 59.1858C12.4721 58.9187 14.9612 58.657 17.4449 58.4006C17.3007 60.4143 17.1565 62.428 17.0283 64.4417C15.2336 64.6767 13.4442 64.9331 11.6602 65.1788C11.7029 64.4844 11.7724 63.7954 11.8258 63.1064C10.3622 63.304 8.88803 63.4963 7.42449 63.6939C7.31233 64.7889 7.21084 65.8946 7.12538 66.9949C7.07731 67.6465 7.68622 68.1433 8.95212 68.4584C10.5438 68.8537 12.1516 69.2276 13.7487 69.6015C14.2347 69.7136 14.6941 69.9593 15.1588 70.3386C16.0722 71.081 16.4674 72.1226 16.3713 73.4579C16.2324 75.1725 16.1202 76.8764 16.0081 78.5803Z" fill="white"/>
<path fill-rule="evenodd" clip-rule="evenodd" d="M29.9116 75.4769C29.8903 75.9523 29.5484 76.2407 28.9235 76.3315C27.7484 76.5024 26.5893 76.684 25.4142 76.8763C25.5477 74.2964 25.6706 71.7165 25.8201 69.142C25.9697 66.5621 26.1299 63.9876 26.2848 61.4077C27.7484 61.2635 29.2119 61.1246 30.6648 60.9804C30.5312 63.3947 30.387 65.8144 30.2695 68.2286C30.1413 70.6429 30.0291 73.0626 29.9116 75.4769ZM28.6885 57.359C26.0018 57.578 24.2017 57.9145 23.299 58.3258C21.8622 58.9827 21.1091 60.2006 20.9916 61.9846C20.7726 65.2855 20.5375 68.5865 20.3185 71.8821C20.1049 75.1831 19.8912 78.4841 19.6936 81.785C22.2788 81.2829 24.848 80.7862 27.4386 80.3535C30.2428 79.8888 32.0802 79.4776 33.0043 79.0396C34.4678 78.3452 35.2423 77.1701 35.3011 75.4822C35.4132 72.3682 35.5414 69.2542 35.675 66.1402C35.8085 63.0262 35.9741 59.9175 36.113 56.8035C33.6399 56.9744 31.1615 57.1507 28.6885 57.359Z" fill="white"/>
<path fill-rule="evenodd" clip-rule="evenodd" d="M49.0925 70.0768C49.0712 71.2893 49.0605 72.4965 49.0391 73.7036C49.0284 74.1576 48.6973 74.3926 48.0723 74.4193C46.8972 74.4728 45.7488 74.5475 44.5951 74.6116C44.6378 72.1813 44.7019 69.7403 44.7607 67.31C44.8194 64.8743 44.9156 62.4387 45.0117 60.003C46.4646 59.9549 47.9174 59.9015 49.3543 59.8641C49.3222 60.7668 49.2902 61.6749 49.2795 62.5775C51.0261 62.5402 52.7781 62.5134 54.5354 62.4974C54.5567 61.4452 54.5995 60.3929 54.6102 59.3407C54.6208 58.2884 54.6636 57.2308 54.6956 56.1786C52.2226 56.1946 49.7656 56.2213 47.3032 56.2854C44.6325 56.3602 42.8378 56.5952 41.9351 56.9424C40.5357 57.4872 39.8092 58.6089 39.7345 60.2754C39.6009 63.3574 39.4514 66.4393 39.3499 69.516C39.2431 72.5979 39.1416 75.6799 39.0508 78.7565C41.604 78.5001 44.1518 78.2651 46.7049 78.1209C49.4771 77.9607 51.3145 77.763 52.2279 77.4479C53.6487 76.9511 54.3751 75.8882 54.3965 74.2591C54.4125 72.8276 54.4072 71.3908 54.4286 69.9593C52.6552 69.986 50.8872 70.0181 49.0925 70.0768Z" fill="white"/>
<path fill-rule="evenodd" clip-rule="evenodd" d="M68.0436 70.4453C68.065 71.6631 68.0704 72.881 68.0864 74.0934C68.0917 74.5528 67.7659 74.7611 67.141 74.7184C65.9765 74.6329 64.8175 74.5581 63.653 74.4994C63.6317 72.0797 63.6157 69.6601 63.6103 67.2351C63.605 64.8155 63.6424 62.3959 63.6637 59.9709C65.1166 60.0243 66.5587 60.0937 68.0223 60.1685C68.0116 61.0819 68.0116 61.9953 68.0009 62.9033C69.7582 63.0155 71.5209 63.133 73.2835 63.2718C73.2728 62.1929 73.2782 61.1193 73.2728 60.0457C73.2675 58.9667 73.2835 57.8878 73.2835 56.8141C70.8105 56.6646 68.3428 56.515 65.8804 56.4189C63.2204 56.312 61.4257 56.4296 60.5444 56.7126C59.1396 57.1613 58.4399 58.2029 58.4078 59.832C58.3491 62.8445 58.2903 65.8624 58.2743 68.8749C58.2583 71.8875 58.2529 74.9053 58.2636 77.9179C60.8168 77.998 63.3593 78.0995 65.9071 78.2704C68.6793 78.4627 70.506 78.5001 71.4087 78.2864C72.8402 77.9499 73.5346 76.9618 73.4972 75.2952C73.4651 73.8317 73.4331 72.3735 73.3957 70.91C71.6117 70.7284 69.8383 70.5842 68.0436 70.4453Z" fill="white"/>
<path fill-rule="evenodd" clip-rule="evenodd" d="M77.0652 57.0758C77.0866 60.8094 77.0705 64.5484 77.1506 68.2766C77.2308 72.0103 77.3483 75.7385 77.4818 79.4668C81.1139 80.0009 84.7728 80.6099 88.4263 81.2882C88.3515 79.9956 88.2927 78.703 88.218 77.4104C86.4019 77.0952 84.5965 76.7961 82.8071 76.5077C82.7537 75.4768 82.711 74.4459 82.6629 73.415C82.6149 72.3841 82.5775 71.3533 82.5508 70.3224C84.3561 70.5681 86.1562 70.8245 87.9509 71.0969C87.8868 69.7989 87.8387 68.5063 87.8067 67.2084C86.0226 66.9733 84.2333 66.7437 82.46 66.5247C82.4065 64.7834 82.3852 63.0475 82.3478 61.3115C84.1211 61.4931 85.8784 61.6854 87.6518 61.8777C87.6304 60.5797 87.609 59.2871 87.577 57.9892C84.0731 57.658 80.5745 57.3589 77.0652 57.0758Z" fill="white"/>
<path fill-rule="evenodd" clip-rule="evenodd" d="M96.8014 62.9834C97.9338 63.1276 99.0875 63.2825 100.247 63.4321C100.882 63.5175 101.235 63.822 101.245 64.3508C101.283 65.7449 101.363 67.139 101.422 68.5384C101.48 69.9272 101.561 71.3266 101.641 72.7207C101.673 73.2335 101.379 73.4365 100.738 73.3136C99.5522 73.0839 98.3718 72.8649 97.2073 72.6513C97.1059 71.0382 97.0364 69.4304 96.967 67.8173C96.8922 66.2043 96.8335 64.5912 96.8014 62.9834ZM110 86.5388C109.022 85.0646 108.05 83.6117 107.084 82.1749C106.127 80.7488 105.171 79.344 104.237 77.9499C106.336 78.0033 107.324 76.8816 107.153 74.5795C107.025 72.8596 106.907 71.145 106.8 69.4251C106.694 67.7052 106.619 65.9906 106.539 64.2707C106.443 62.3104 105.679 60.9697 104.242 60.2379C103.361 59.7893 101.545 59.4154 98.8418 59.1323C96.3474 58.8706 93.8583 58.6142 91.3853 58.3578C91.4867 62.3157 91.5615 66.2737 91.7378 70.2316C91.9141 74.1842 92.133 78.1368 92.3627 82.0841C94.2002 82.4901 96.0376 82.896 97.875 83.334C97.8002 82.2337 97.7361 81.1387 97.656 80.033C97.5759 78.9274 97.5225 77.8324 97.4691 76.7321C97.9551 76.8336 98.4572 76.935 98.954 77.0365C99.846 78.3238 100.749 79.6271 101.651 80.9464C102.565 82.2764 103.489 83.6224 104.413 84.9845C106.261 85.4866 108.13 86.01 110 86.5388Z" fill="white"/>
<path fill-rule="evenodd" clip-rule="evenodd" d="M10.608 70.0393C8.23646 70.2904 5.87024 70.5628 3.50936 70.8619C3.53607 70.8886 3.56812 70.9207 3.60017 70.9474C3.84587 71.1717 4.15033 71.364 4.47615 71.4388C6.06253 71.802 7.65426 72.1492 9.24598 72.4857C10.56 72.7634 12.1624 73.4418 12.0395 75.0549C11.938 76.3849 11.8312 77.7095 11.719 79.0395C11.6282 80.1452 10.8431 80.8236 9.80149 81.0586C8.61036 81.331 7.41924 81.5927 6.23345 81.8705L4.70583 82.223L4.83936 80.6633C4.89277 79.9957 4.94619 79.3333 4.9996 78.6656C3.93667 78.9007 2.8684 79.1357 1.80547 79.3761C1.69864 80.4497 1.59181 81.5179 1.50101 82.5915C1.43157 83.3928 1.35679 84.1993 1.28735 85.0005C3.39719 84.4343 5.50703 83.8735 7.62221 83.3447C8.78128 83.0563 9.95104 82.7464 11.0834 82.3779C11.6977 82.1803 12.4401 81.9292 13.001 81.6034C14.2081 80.9037 14.785 79.8835 14.8758 78.5001C14.9933 76.7908 15.1055 75.0816 15.2283 73.3724C15.2924 72.5177 15.1161 71.7753 14.4378 71.2198C14.16 70.9955 13.8449 70.7925 13.4924 70.707C12.5202 70.488 11.5641 70.2637 10.608 70.0393ZM59.4014 76.8015C61.5967 76.8763 63.7973 76.9724 65.9873 77.122C67.1089 77.1968 68.2467 77.2716 69.3683 77.2822C69.8971 77.2876 70.6289 77.2929 71.147 77.1701C72.1512 76.935 72.3809 76.2941 72.3595 75.3113C72.3382 74.1896 72.3114 73.0626 72.2847 71.9409C71.2592 71.8501 70.2283 71.7593 69.2028 71.6791C69.2135 72.4803 69.2188 73.2762 69.2295 74.0774C69.2455 75.338 68.22 75.9362 67.0609 75.8508C65.9072 75.7653 64.7534 75.6958 63.5997 75.6318L62.5314 75.5783L62.5207 74.5047C62.4994 72.2987 62.4833 70.0928 62.478 67.8921C61.4631 67.8761 60.4429 67.8654 59.4281 67.8547C59.4227 68.1966 59.4227 68.5331 59.4227 68.8749C59.4014 71.5136 59.396 74.1575 59.4014 76.8015ZM78.2991 68.4156C78.3739 71.77 78.4754 75.1297 78.5929 78.484C81.4719 78.9167 84.3455 79.3921 87.2138 79.9102C87.1871 79.4028 87.1604 78.89 87.1337 78.3826C85.6328 78.1262 84.1319 77.8751 82.6256 77.6348L81.7176 77.4905L81.6695 76.5718C81.6161 75.541 81.5734 74.5047 81.5253 73.4738C81.4772 72.4323 81.4345 71.3907 81.4131 70.3491L81.3864 69.0138L82.7057 69.1954C84.0571 69.377 85.4031 69.5693 86.7492 69.7669C86.7385 69.4892 86.7278 69.2114 86.7171 68.9283C83.9182 68.7254 81.1087 68.5598 78.2991 68.4156ZM92.833 69.4091C92.8436 69.6655 92.8543 69.9272 92.865 70.1836C93.0253 73.8424 93.2282 77.5012 93.4419 81.1601C94.5048 81.3951 95.5677 81.6301 96.6253 81.8758C96.5879 81.2883 96.5505 80.706 96.5078 80.1185C96.4224 79.0075 96.3743 77.8965 96.3209 76.7855L96.2461 75.3113L97.6882 75.6104C98.185 75.7119 98.6871 75.8134 99.1838 75.9202L99.6272 76.0163L99.8836 76.3849C100.786 77.6882 101.684 78.9915 102.581 80.3001C103.425 81.5286 104.269 82.7625 105.107 83.9963C105.855 84.1993 106.603 84.4023 107.351 84.6052C106.95 84.0017 106.544 83.4034 106.144 82.7999C105.198 81.3897 104.242 79.985 103.297 78.5802L102.063 76.7481L104.269 76.8069C104.701 76.8175 105.3 76.7748 105.631 76.4543C106.053 76.0484 106.053 75.1884 106.015 74.6596C105.919 73.3617 105.828 72.0637 105.743 70.7658C104.712 70.6376 103.681 70.5147 102.656 70.3919C102.693 71.145 102.741 71.8928 102.784 72.6459C102.864 74.0133 101.785 74.665 100.53 74.4246C99.3548 74.2003 98.185 73.9813 97.0099 73.7623L96.1286 73.602L96.0752 72.71C96.0111 71.7005 95.963 70.691 95.9149 69.6868C94.884 69.5907 93.8585 69.4999 92.833 69.4091ZM24.6932 68.8269C23.6783 68.8963 22.6635 68.9657 21.6486 69.0459C21.5845 70.018 21.5204 70.9848 21.4563 71.9569C21.2747 74.7665 21.0931 77.576 20.9169 80.3856C23.0214 79.9796 25.1312 79.5844 27.2464 79.2318C28.3841 79.0449 29.5378 78.8419 30.6595 78.5802C31.2417 78.4467 31.9681 78.2704 32.5076 78.014C33.6186 77.4852 34.11 76.668 34.1581 75.4448C34.2436 73.0572 34.3397 70.6696 34.4412 68.2874C33.4263 68.3301 32.4061 68.3835 31.3913 68.4316C31.2738 70.7978 31.1616 73.1694 31.0441 75.5356C30.9907 76.6573 30.136 77.3089 29.0785 77.4638C27.914 77.6348 26.7496 77.8164 25.5852 78.0033L24.1911 78.2277L24.2605 76.8175C24.3941 74.2377 24.5169 71.6578 24.6665 69.0726C24.6825 68.9924 24.6879 68.9123 24.6932 68.8269ZM40.5517 68.0524C40.5303 68.5545 40.5143 69.0565 40.4983 69.564C40.4075 72.2133 40.3167 74.8573 40.2419 77.5066C42.3784 77.2983 44.515 77.1166 46.6569 76.9938C47.7839 76.9297 48.9216 76.8549 50.0433 76.7214C50.6041 76.6573 51.3306 76.5665 51.8647 76.3795C52.8956 76.0217 53.2535 75.3166 53.2695 74.2537C53.2802 73.2121 53.2802 72.1652 53.2909 71.1236C52.2653 71.1397 51.2451 71.1557 50.2196 71.1877C50.2089 72.037 50.1982 72.881 50.1822 73.7302C50.1608 74.9107 49.2261 75.5089 48.1258 75.5623C46.972 75.6157 45.813 75.6905 44.6592 75.7546L43.436 75.824L43.4574 74.5955C43.4948 72.3895 43.5535 70.1782 43.607 67.9722C42.5868 67.9936 41.5666 68.0203 40.5517 68.0524Z" fill="url(#paint0_linear_33_2462)"/>
<path d="M55.0266 50.6769C61.0062 50.6769 65.8536 47.6135 65.8536 43.8346C65.8536 40.0557 61.0062 36.9923 55.0266 36.9923C49.0471 36.9923 44.1997 40.0557 44.1997 43.8346C44.1997 47.6135 49.0471 50.6769 55.0266 50.6769Z" fill="#156EAA"/>
<path d="M43.5374 43.5782C43.3985 47.4721 48.617 50.8211 55.1762 51.0508C61.7301 51.2805 67.1782 48.3 67.3171 44.4061C67.456 40.5123 62.2375 37.1633 55.6783 36.9336C49.1244 36.7039 43.6763 39.6844 43.5374 43.5782ZM45.0436 44.9777L46.176 42.6168L49.071 42.6008L51.277 44.951L50.2408 47.3118L47.3191 47.3759L45.0436 44.9777ZM50.4811 47.3118L51.528 44.9349L56.0255 44.2085L59.3211 46.0353L57.6119 48.7967L54.3109 49.1867L50.4811 47.3118ZM59.4119 45.9017L56.1003 44.0643L56.9656 41.2921L60.1009 40.5871L63.9788 42.4672L63.8452 45.0311L59.4119 45.9017ZM52.5536 38.6321L55.9774 37.8096L60.7045 38.9847L60.117 40.4428L57.0083 41.1426L57.0136 41.1265L52.5269 40.2986L52.5536 38.6321ZM56.0682 37.222C58.5199 37.3555 60.7633 37.9484 62.558 38.8458L61.0517 38.958L61.0677 38.9312L56.0468 37.6814L56.0682 37.222ZM48.7345 38.333L52.3186 38.6855H52.3239L52.2972 40.2612L48.9375 42.4565L48.9428 42.4619L46.2027 42.4779L45.3962 40.5016C46.2241 39.6363 47.3671 38.8939 48.7345 38.333ZM66.8578 44.3901C66.8257 45.3302 66.4678 46.2169 65.8536 47.0127L65.5278 46.9166L64.1123 44.9777L64.0749 44.983L64.2031 42.5313L66.158 41.885C66.6388 42.6755 66.8898 43.5195 66.8578 44.3901ZM61.8208 49.7635L61.7674 49.4911L65.485 47.0555L65.7521 47.1356C64.8708 48.2145 63.5087 49.1226 61.8208 49.7635ZM55.1815 50.7837C54.3857 50.757 53.6112 50.6822 52.8634 50.5594L54.3536 49.3202L57.6279 48.9356L61.5431 49.5018L61.6072 49.849C59.7591 50.5167 57.5478 50.8638 55.1815 50.7837ZM44.2157 45.0792L44.846 45.0418L47.1855 47.5095L47.3351 48.6151C45.7754 47.643 44.6644 46.4198 44.2157 45.0792Z" fill="white"/>
<defs>
<linearGradient id="paint0_linear_33_2462" x1="54.3114" y1="85.0105" x2="54.3114" y2="67.8533" gradientUnits="userSpaceOnUse">
<stop offset="0.00248278" stop-color="#156EAA"/>
<stop offset="0.1054" stop-color="#458CBC"/>
<stop offset="0.2252" stop-color="#76AACD"/>
<stop offset="0.3485" stop-color="#A0C4DD"/>
<stop offset="0.4729" stop-color="#C2D9E9"/>
<stop offset="0.5989" stop-color="#DDEAF3"/>
<stop offset="0.7271" stop-color="#F0F6FA"/>
<stop offset="0.859" stop-color="#FBFDFE"/>
<stop offset="1" stop-color="white"/>
</linearGradient>
</defs>
</svg>
