<?xml version="1.0" encoding="UTF-8" standalone="no"?>
<!-- Created with Inkscape (http://www.inkscape.org/) -->

<svg
   width="42.453865mm"
   height="88.43029mm"
   viewBox="0 0 42.453865 88.43029"
   version="1.1"
   id="svg1"
   xml:space="preserve"
   inkscape:version="1.4.1-rc (06eac75fbf, 2025-03-29)"
   sodipodi:docname="empty.svg"
   xmlns:inkscape="http://www.inkscape.org/namespaces/inkscape"
   xmlns:sodipodi="http://sodipodi.sourceforge.net/DTD/sodipodi-0.dtd"
   xmlns="http://www.w3.org/2000/svg"
   xmlns:svg="http://www.w3.org/2000/svg"><sodipodi:namedview
     id="namedview1"
     pagecolor="#ffffff"
     bordercolor="#000000"
     borderopacity="0.25"
     inkscape:showpageshadow="2"
     inkscape:pageopacity="0.0"
     inkscape:pagecheckerboard="0"
     inkscape:deskcolor="#d1d1d1"
     inkscape:document-units="mm"
     inkscape:zoom="1.5067882"
     inkscape:cx="127.75518"
     inkscape:cy="228.96383"
     inkscape:window-width="1982"
     inkscape:window-height="1083"
     inkscape:window-x="66"
     inkscape:window-y="32"
     inkscape:window-maximized="1"
     inkscape:current-layer="layer1" /><defs
     id="defs1" /><g
     inkscape:label="Layer 1"
     inkscape:groupmode="layer"
     id="layer1"
     transform="translate(-71.931655,-90.609115)"><path
       style="fill:#000000"
       d="m 90.292155,177.991 c -0.63652,-0.61863 -1.15731,-1.18347 -1.15731,-1.25519 0,-0.0717 -0.29766,-0.56903 -0.66146,-1.10513 -1.029635,-1.51725 -0.775757,-3.37749 0.55839,-4.09151 0.34773,-0.1861 0.63224,-0.45575 0.63224,-0.59923 0,-0.14347 -0.40675,-1.52234 -0.90389,-3.06414 -1.316072,-4.08158 -1.741563,-6.48836 -1.744859,-9.86973 -0.0034,-3.5129 -0.200682,-4.97209 -0.672143,-4.97209 -0.472986,0 -0.586866,-0.72227 -1.042918,-6.61459 -0.219628,-2.83765 -0.529248,-6.28591 -0.688045,-7.66278 -0.158796,-1.37688 -0.247951,-3.46048 -0.198122,-4.63021 l 0.0906,-2.1268 -1.719791,-0.88085 c -0.945886,-0.48447 -1.831148,-1.07978 -1.96725,-1.32292 -0.136102,-0.24313 -1.808148,-2.05898 -3.715658,-4.03521 -5.412265,-5.60726 -5.991629,-6.8297 -4.385585,-9.25349 2.091167,-3.15592 5.61474,-7.40406 8.299282,-10.00591 1.084112,-1.05072 1.490506,-1.2381 4.434694,-2.04474 2.03806,-0.55837 3.470807,-1.10371 3.859737,-1.46909 0.85377,-0.80206 0.82614,-2.15009 -0.0658,-3.210091 -0.73415,-0.872482 -0.72662,-0.64484 -0.155,-4.687072 0.25233,-1.78428 0.78038,-3.24266 1.1021,-3.04382 0.10198,0.063 0.50497,-0.21897 0.89554,-0.62664 0.59886,-0.62507 0.94905,-0.74984 2.23477,-0.79623 1.47606,-0.0533 1.56531,-0.0166 2.80148,1.15108 l 1.27685,1.20609 -0.12534,1.65007 c -0.0689,0.90754 -0.0157,1.94649 0.11831,2.30878 0.32191,0.87035 0.0588,2.170612 -0.59083,2.919632 -0.34546,0.398321 -0.52356,0.987461 -0.52356,1.731901 v 1.12823 l 3.31256,1.10391 c 2.516993,0.83879 3.697543,1.39331 4.915493,2.30886 1.51026,1.13528 8.98875,8.93064 8.9167,9.29451 -0.0184,0.0929 0.2229,0.74127 0.53619,1.44091 0.52456,1.17144 0.53907,1.34519 0.18343,2.19636 -0.81639,1.9539 -3.33597,5.39244 -6.24043,8.5165 l -3.02498,3.25368 -1.27069,-0.10733 c -1.09139,-0.0922 -1.244,-0.0473 -1.08154,0.3182 0.10403,0.23403 0.21446,1.49708 0.24539,2.80677 0.0447,1.8915 -0.0487,2.59891 -0.45381,3.43958 -0.28054,0.58208 -0.74118,1.73707 -1.02365,2.56663 -0.42604,1.25124 -0.45975,1.63454 -0.19777,2.24896 0.37868,0.88816 0.40145,7.07748 0.0385,10.47246 -0.22874,2.13969 -0.20796,2.35942 0.26275,2.77812 0.28112,0.25007 0.67489,0.84162 0.87504,1.31456 0.31482,0.74388 0.30821,0.9932 -0.0489,1.84795 -0.24993,0.59816 -0.30878,1.02274 -0.14912,1.07595 0.67512,0.22504 1.67913,1.26134 2.18753,2.25789 2.07489,4.06712 -1.69951,8.77752 -6.086743,7.59617 -1.23764,-0.33327 -2.78561,-1.56402 -3.3571,-2.66915 -1.09856,-2.12439 -0.57441,-4.89351 1.21642,-6.42639 0.91392,-0.78229 1.03287,-1.01675 0.99579,-1.96289 -0.0232,-0.59096 0.11154,-1.4454 0.29932,-1.89873 0.68421,-1.65185 -0.27389,-7.17161 -1.47814,-8.51576 -0.21027,-0.23471 -0.44508,-1.06815 -0.52178,-1.85209 -0.18142,-1.85412 -0.64555,-3.67431 -0.93692,-3.67431 -0.34937,0 -0.27313,2.47258 0.16608,5.38657 0.21624,1.43464 0.31243,2.74432 0.21375,2.91041 -0.0987,0.16609 -0.50194,0.7187 -0.89612,1.22803 -0.50028,0.6464 -0.88129,1.69097 -1.26176,3.45916 -0.5081,2.36135 -0.51731,2.62149 -0.13594,3.83645 0.27491,0.87579 0.40424,2.30149 0.39424,4.34605 -0.018,3.67955 0.35597,7.58251 0.7749,8.08729 0.27166,0.32732 0.45952,1.25374 0.93538,4.61271 0.20679,1.45965 -0.61751,2.55856 -2.01947,2.69226 -1.01518,0.0968 -1.21612,0.007 -2.27103,-1.01857 z m 3.53904,-0.49537 c 0.40979,-0.12809 0.42524,-1.19838 0.036,-2.49741 -0.28782,-0.96069 -0.32021,-0.98075 -1.38906,-0.86069 -0.6019,0.0676 -1.42178,0.12657 -1.82197,0.131 -0.84931,0.009 -0.85908,0.0274 -0.31183,0.57468 0.44633,0.44632 1.96548,0.5774 1.96548,0.16959 0,-0.1354 -0.26789,-0.29778 -0.59531,-0.36085 -0.33045,-0.0636 -0.10973,-0.13069 0.49609,-0.15069 1.02126,-0.0337 1.10204,0.0171 1.25677,0.79079 0.35964,1.79821 0.27444,1.96376 -1.04007,2.02097 -1.11017,0.0483 -1.29716,-0.0419 -2.36621,-1.14189 -1.12593,-1.1585 -1.66124,-2.11745 -1.3537,-2.425 0.0825,-0.0825 0.31701,-0.0115 0.52106,0.15785 0.31031,0.25753 0.34137,0.16632 0.18988,-0.55761 -0.13257,-0.63351 -0.0708,-0.94837 0.23029,-1.17461 0.22628,-0.17001 0.32952,-0.39099 0.22942,-0.49108 -0.10009,-0.1001 -0.48686,0.12288 -0.85948,0.4955 -1.041684,1.04169 -0.916901,2.18382 0.42237,3.86588 0.60492,0.75975 1.34906,1.48189 1.65365,1.60476 0.49652,0.20029 1.85158,0.12543 2.73659,-0.15119 z m -3.07747,-5.71406 c -0.1253,-0.63404 -0.66127,-2.56333 -1.19105,-4.28732 -1.05028,-3.41776 -1.750747,-6.96233 -1.750747,-8.8593 0,-0.77491 -0.09146,-1.11743 -0.254779,-0.95411 -0.620102,0.6201 0.4512,6.47862 2.125776,11.62501 0.42616,1.30969 0.77845,2.8575 0.78288,3.43959 0.006,0.80368 0.0691,0.95374 0.26188,0.62363 0.15399,-0.26371 0.16423,-0.88817 0.026,-1.5875 z m 1.30338,-11.94645 c -0.2926,-1.15706 -0.46747,-2.20817 -0.3886,-2.33578 0.0789,-0.12762 0.0173,-0.23203 -0.1368,-0.23203 -0.1541,0 -0.28019,0.4087 -0.28019,0.90821 0,0.67584 -0.13539,0.95119 -0.52917,1.07617 -0.76392,0.24245 -0.65017,0.55176 0.19844,0.53959 0.55704,-0.008 0.74742,0.12912 0.81215,0.58489 0.0636,0.44799 -0.0471,0.59531 -0.44741,0.59531 -0.29257,0 -0.60554,0.11906 -0.69547,0.26458 -0.0954,0.15437 0.17364,0.26459 0.64584,0.26459 h 0.80937 l 0.002,2.71197 c 0.001,1.49159 0.0906,3.36683 0.19843,4.16719 0.15308,1.13569 0.21228,0.58833 0.26962,-2.49286 0.0605,-3.2535 -0.0201,-4.31819 -0.45851,-6.05183 z m 11.905315,6.40169 c 0.80028,-1.93203 -0.77562,-2.09731 -1.88912,-0.19812 -0.66572,1.13547 -0.69034,1.27537 -0.318,1.80696 l 0.40359,0.5762 0.7448,-0.71356 c 0.40963,-0.39246 0.88607,-1.05462 1.05873,-1.47148 z m -4.910725,1.36508 c 0.22298,-0.70254 -0.86749,-2.3202 -1.78119,-2.64231 -0.65507,-0.23093 -0.7687,-0.17766 -1.13599,0.53261 -0.38027,0.73536 -0.37082,0.8416 0.13847,1.55683 0.48255,0.67768 0.85318,0.84289 2.30288,1.02657 0.1721,0.0218 0.38622,-0.19136 0.47583,-0.4737 z m 2.331345,-1.01346 c 0.78945,-0.87233 0.95676,-1.71737 0.49658,-2.5081 -0.3581,-0.61531 -0.59905,-0.7276 -1.56131,-0.7276 -1.033885,0 -1.177125,0.0823 -1.567515,0.90099 -0.4105,0.86082 -0.40344,0.9434 0.15815,1.85209 0.66828,1.08129 1.742635,1.29087 2.474095,0.48262 z m -5.411495,-1.26378 c 0.46662,-1.02412 0.39328,-2.67597 -0.12769,-2.87588 -0.23911,-0.0918 -0.36105,-0.24053 -0.27098,-0.3306 0.0901,-0.0901 0.33727,-0.0198 0.54933,0.15622 0.30602,0.25398 0.52566,0.22819 1.06472,-0.12501 0.77094,-0.50514 0.82792,-0.82673 0.27581,-1.55656 -0.37831,-0.50009 -0.40138,-0.49728 -1.08482,0.13229 -1.35719,1.2502 -2.04738,3.5762 -1.41293,4.76168 0.36818,0.68794 0.63912,0.6443 1.00656,-0.16214 z m 8.399295,-1.54841 c -0.0928,-0.49468 -0.3411,-1.24494 -0.55178,-1.66726 -0.43304,-0.86804 -1.64469,-2.09438 -1.85828,-1.88079 -0.29811,0.2981 0.42441,1.55803 1.05938,1.84734 0.53647,0.24443 0.66677,0.49371 0.66677,1.27557 0,0.98738 0.15342,1.32455 0.60271,1.32455 0.14093,0 0.17635,-0.39227 0.0812,-0.89941 z m -2.58413,-1.34955 c 0.22545,-0.49482 0.22545,-0.82811 0,-1.32292 -0.36621,-0.80373 -0.52122,-0.81879 -1.16023,-0.11268 -0.33394,0.369 -0.710275,0.50794 -1.148725,0.42413 -1.29175,-0.24694 -1.71171,0.3023 -0.90919,1.18907 0.3055,0.33758 0.81259,0.48386 1.677325,0.48386 1.06531,0 1.28178,-0.0929 1.54082,-0.66146 z m -0.48654,-3.24115 c 0.91217,-1.45257 0.94283,-1.66688 0.39112,-2.73377 -0.49776,-0.96255 -0.86892,-0.81937 -0.70854,0.27333 l 0.118,0.804 -1.756385,-0.13491 c -2.01397,-0.1547 -2.21149,0.0243 -1.82687,1.6558 0.2035,0.86322 0.35645,1.01718 1.15153,1.15905 1.719315,0.3068 1.820475,0.26745 2.631145,-1.0235 z m -2.706475,0.5381 c -0.62034,-0.094 -0.7276,-0.23586 -0.7276,-0.96247 0,-0.82399 0.0373,-0.85273 1.12448,-0.86667 0.61846,-0.008 0.85659,0.0346 0.52917,0.0945 -0.32743,0.0599 -0.59532,0.21968 -0.59532,0.35508 0,0.68842 2.251495,-0.22772 2.474765,-1.007 0.0735,-0.25664 0.11233,-0.10943 0.0862,0.32714 -0.0324,0.54176 -0.23643,0.87666 -0.64276,1.05492 -0.61754,0.27094 -0.80425,0.66487 -0.31511,0.66487 0.15411,0 0.20661,0.11906 0.11667,0.26458 -0.16328,0.26421 -0.677695,0.28304 -2.050525,0.0751 z m -8.36025,-2.98188 c 1.43827,-0.003 1.50658,-0.0355 1.78593,-0.83685 0.50433,-1.4467 0.30979,-2.0614 -0.2387,-0.75426 -0.42267,1.00728 -0.68,1.21986 -0.5605,0.46302 0.0462,-0.29246 -0.44004,-0.24142 -0.63012,0.0661 -0.27439,0.44397 -1.67083,0.30305 -1.96639,-0.19844 -0.238,-0.40383 -0.306812,-0.41228 -0.538261,-0.0661 -0.201033,0.30065 -0.266355,0.15632 -0.269425,-0.59531 -0.0023,-0.56185 -0.134409,-0.99219 -0.304598,-0.99219 -0.20533,0 -0.247241,0.3889 -0.132291,1.22755 0.09254,0.67516 0.168255,1.40342 0.168255,1.61836 0,0.27616 0.174637,0.34401 0.595312,0.23127 0.327418,-0.0877 1.268278,-0.16116 2.090788,-0.16315 z m 8.15776,-2.87331 c 0.004,-1.81881 -0.48146,-4.17106 -1.04388,-5.06014 -0.50358,-0.79607 -0.48077,-0.0908 0.0426,1.31656 0.38407,1.03281 0.55048,2.15535 0.57457,3.87581 0.0187,1.33205 0.12139,2.28455 0.22831,2.11667 0.10691,-0.16789 0.19621,-1.17989 0.19843,-2.2489 z m 2.535595,-6.28522 c 0.18921,-3.95514 0.0255,-4.96477 -0.59275,-3.65479 -0.16582,0.35138 -0.19364,0.63887 -0.0618,0.63887 0.51591,0 0.22547,1.24892 -0.355625,1.52916 -0.58862,0.28388 -0.58735,0.28731 0.113185,0.30502 0.6923,0.0175 0.70566,0.0496 0.58474,1.40697 -0.46454,5.21475 -0.54988,6.71471 -0.40232,7.07065 0.20963,0.50564 0.46714,-2.12356 0.71458,-7.29588 z m -9.885715,6.2339 c 0.73636,-0.20451 1.27975,-0.66611 2.18428,-1.85549 l 1.20407,-1.58324 -0.34121,-2.70711 c -0.36474,-2.89383 -0.24376,-6.30883 0.22899,-6.46431 0.46847,-0.15408 1.18751,2.02515 1.35538,4.10785 0.13415,1.66427 0.24632,1.99717 0.79386,2.35593 0.87018,0.57017 1.17923,0.19819 1.91894,-2.3097 0.32191,-1.0914 1.0389,-2.87734 1.5933,-3.96875 1.864765,-3.67099 2.195855,-4.71973 2.255255,-7.14375 0.051,-2.08256 -0.41659,-4.30404 -0.82089,-3.89974 -0.0826,0.0826 -0.0215,0.39075 0.13577,0.68469 0.52325,0.97769 0.29536,1.15009 -0.41084,0.31081 -0.55158,-0.65551 -0.86876,-0.81144 -1.521365,-0.7479 -0.78574,0.0765 -0.8234,0.1333 -0.80137,1.20863 l 0.0231,1.12837 -0.63343,-1.06222 c -0.69971,-1.17335 -1.59072,-1.40016 -2.63288,-0.67021 -0.4944,0.34629 -0.59762,0.34629 -0.88502,0 -0.2371,-0.2857 -0.89164,-0.39201 -2.4135,-0.39201 -2.05637,0 -2.09583,0.0126 -2.59244,0.82922 l -0.50428,0.82922 -0.0871,-0.75355 c -0.0782,-0.67601 -0.19225,-0.75707 -1.108504,-0.78765 -0.870852,-0.0291 -1.09806,0.0865 -1.541836,0.78423 -0.457479,0.71928 -0.497589,0.73826 -0.331392,0.15686 0.103994,-0.3638 0.251246,-0.82653 0.327226,-1.02829 0.262167,-0.69616 -0.60054,-0.1371 -1.004511,0.65095 -0.56674,1.10558 -0.49487,5.72297 0.211786,13.60651 0.319579,3.56526 0.581257,6.69065 0.581508,6.94531 2.51e-4,0.25466 0.160596,0.46302 0.356324,0.46302 0.195727,0 0.572996,0.23993 0.838376,0.53317 0.421065,0.46527 1.564693,0.96021 2.377633,1.02899 0.14552,0.0123 0.70567,-0.10012 1.24478,-0.24984 z m -2.933651,-0.95002 c -0.536723,-0.37595 -1.353839,-1.82105 -1.353839,-2.39434 0,-0.10831 0.327421,0.19027 0.727604,0.66353 0.749029,0.88581 2.711976,1.51838 2.711976,0.87395 0,-0.16456 -0.13045,-0.2992 -0.28988,-0.2992 -0.15944,0 -0.63446,-0.24535 -1.0556,-0.54523 -0.722309,-0.51433 -1.076206,-1.36858 -2.021164,-4.87873 -0.07835,-0.29104 0.468624,0.38088 1.215499,1.49316 0.746875,1.11227 1.553195,2.09724 1.791835,2.18881 1.18172,0.45347 2.72084,-1.6616 2.77561,-3.81426 0.0406,-1.59463 0.10893,-1.33516 0.38342,1.45521 0.1002,1.01865 0.23556,1.70326 0.30079,1.52135 0.23138,-0.64525 0.60364,-0.31805 0.60203,0.52917 -10e-4,0.65901 -0.30066,1.18441 -1.28166,2.24896 -1.21179,1.31501 -1.34962,1.38906 -2.58533,1.38906 -0.77855,0 -1.55389,-0.17411 -1.921291,-0.43145 z m 8.490551,-5.70499 c -0.17566,-0.17567 -0.31939,-0.95723 -0.31939,-1.73681 0,-0.77958 -0.13514,-1.95413 -0.30032,-2.6101 -0.22404,-0.88973 -0.22404,-1.26896 0,-1.493 0.16518,-0.16517 0.31542,-1.19924 0.33387,-2.29792 l 0.0336,-1.9976 0.22028,1.71979 c 0.41888,3.27037 0.81967,5.29166 1.04924,5.29166 0.30735,0 0.81264,-1.87434 1.03423,-3.83645 0.15362,-1.36018 0.20919,-1.48332 0.38811,-0.8599 0.33785,1.17716 0.84479,0.8856 1.224935,-0.70451 l 0.19528,-0.81684 0.0271,0.83958 c 0.0165,0.51096 -0.37801,1.59833 -1.007905,2.77812 -0.56924,1.0662 -1.2412,2.71245 -1.49323,3.65834 -0.53154,1.99489 -0.9029,2.54846 -1.38573,2.06564 z m -8.20856,-2.70461 c -0.875035,-1.48307 -1.105851,-2.74234 -1.071046,-5.84332 l 0.03267,-2.91042 0.228137,1.98437 c 0.486482,4.23152 0.778363,5.87892 1.178783,6.65326 0.58808,1.13722 0.28944,1.2313 -0.36854,0.11611 z m 9.41052,-14.55759 c 1.52069,-0.23805 1.79765,-0.54477 0.66146,-0.73254 -1.45491,-0.24045 -9.64507,0.002 -9.93727,0.29439 -0.15888,0.15888 -0.741311,0.28887 -1.29429,0.28887 -0.55298,0 -1.005412,0.0893 -1.005406,0.19844 1.5e-5,0.26688 9.823176,0.22516 11.575506,-0.0492 z m 6.546985,-0.31646 c 0.36166,-0.55197 0.50664,-0.62055 0.69922,-0.33073 0.51512,0.77519 6.45212,-6.19758 8.19435,-9.62394 l 0.77436,-1.5229 -0.54667,-1.07157 -0.54667,-1.07156 -0.89327,0.74238 c -0.77231,0.64185 -0.87363,0.8611 -0.74824,1.61909 0.0914,0.55216 -0.0284,1.26127 -0.3234,1.91552 -0.41186,0.91334 -0.50723,0.98574 -0.78972,0.59941 -0.27536,-0.37658 -0.40326,-0.19653 -0.89466,1.25948 -0.65484,1.94027 -1.30141,2.86524 -3.95716,5.66105 -1.22768,1.29243 -1.89344,1.82958 -1.89476,1.52873 -0.002,-0.5505 -1.98767,-1.76414 -2.43426,-1.48813 -0.2068,0.12781 -0.14005,0.26118 0.2049,0.40945 0.29547,0.127 -0.38263,0.15985 -1.605065,0.0778 -1.93539,-0.12998 -2.07268,-0.1074 -1.60307,0.26363 0.28247,0.22317 0.75872,0.40681 1.05833,0.40808 0.29961,0.001 1.378185,0.29194 2.396825,0.64594 2.34115,0.81358 2.36177,0.81343 2.90896,-0.0217 z m -20.082782,0.0378 c 0.714352,-0.21671 1.797811,-0.3953 2.407686,-0.39688 0.609875,-0.002 1.174467,-0.10901 1.254649,-0.23875 0.222512,-0.36003 -1.619649,-0.4977 -3.683835,-0.27529 -1.017219,0.1096 -1.947188,0.13889 -2.066597,0.0651 -0.377829,-0.23351 -5.482459,-6.7352 -5.856746,-7.45965 -0.196987,-0.38127 -0.510462,-1.229 -0.696613,-1.88385 -0.337531,-1.18737 -0.338937,-1.18845 -0.514644,-0.39687 l -0.176188,0.79375 -0.3131,-0.76129 c -0.267192,-0.64967 -0.233013,-0.89703 0.233108,-1.68705 0.514978,-0.87282 0.520555,-0.9541 0.09754,-1.42152 -0.629561,-0.69566 -0.788877,-0.63881 -1.687907,0.60226 -1.644359,2.26998 -1.185964,3.23102 4.213967,8.83476 1.828749,1.89777 3.532193,3.71347 3.78543,4.0349 0.540394,0.68589 1.226488,0.72938 3.003247,0.19039 z m 11.729737,-1.92541 c 0.60125,-0.2969 1.23491,-0.97203 1.79635,-1.91392 l 0.86742,-1.4552 10e-4,1.10886 c 0.001,1.27985 0.36225,1.63873 1.03549,1.02946 1.049295,-0.94959 1.376855,-4.32327 0.815875,-8.40303 -0.15597,-1.13436 -0.17649,-2.59538 -0.0495,-3.52488 l 0.21689,-1.5875 0.1958,1.45521 c 0.30764,2.28647 0.45749,2.91042 0.69897,2.91042 0.32196,0 1.25951,-2.62664 1.86604,-5.22787 0.28609,-1.22698 0.77295,-2.81847 1.0819,-3.53664 0.66184,-1.53851 0.49405,-1.89337 -0.47477,-1.00407 l -0.69773,0.64045 0.17772,-0.73984 c 0.45287,-1.88532 -3.541525,-3.60104 -8.517275,-3.65844 l -2.83061,-0.0327 1.70998,-0.24417 c 0.94049,-0.13429 1.77048,-0.30466 1.84442,-0.3786 0.3506,-0.3506 -0.83818,-0.62711 -2.7119,-0.63078 -2.04212,-0.004 -3.02689,0.26945 -3.43089,0.95267 -0.11393,0.19267 -0.99601,0.59397 -1.960186,0.89177 -2.026546,0.62594 -3.290581,1.34671 -4.046046,2.30713 -0.353595,0.44952 -0.533505,0.5433 -0.533505,0.27808 0,-0.22009 -0.175204,-0.54556 -0.389343,-0.72328 -0.323131,-0.26818 -0.684664,-0.015 -2.125926,1.48895 -1.994012,2.08071 -3.503543,3.99 -4.372109,5.52995 -0.798327,1.41542 -0.576979,2.28017 0.820346,3.20488 l 1.066887,0.70603 1.441739,-0.45447 c 1.581613,-0.49856 1.838806,-0.86661 0.714135,-1.02194 -0.727075,-0.10041 -0.72689,-0.10081 0.255041,-0.5463 1.252178,-0.5681 1.597217,-1.22866 1.413306,-2.70572 -0.08085,-0.6493 -0.215726,-1.72905 -0.299733,-2.39943 -0.104884,-0.83698 -0.06343,-1.16368 0.132292,-1.04272 0.156767,0.0969 0.285032,0.62418 0.285032,1.17175 0,1.14277 0.726588,3.4711 1.083204,3.4711 0.131842,0 0.255926,-0.56555 0.275744,-1.25677 0.01982,-0.69123 0.08054,-0.95912 0.134936,-0.59531 0.0544,0.3638 0.412376,2.30404 0.795508,4.31165 0.550914,2.88678 0.878149,3.95168 1.564645,5.09172 0.715071,1.1875 0.774638,1.39154 0.338017,1.15787 -0.291513,-0.15601 -0.773429,-0.6962 -1.070923,-1.20042 -0.297494,-0.50421 -0.597536,-0.86011 -0.666759,-0.79089 -0.199818,0.19982 0.418941,1.86422 1.692606,4.55296 1.007872,2.12763 1.270733,2.48752 1.816879,2.48752 0.972223,0 1.626543,-1.14792 1.239213,-2.17406 -0.29924,-0.79279 -0.29775,-0.79469 0.24104,-0.3071 0.54129,0.48986 0.55683,1.02987 0.077,2.67561 l -0.17241,0.59132 1.52645,-0.52518 c 0.83954,-0.28884 1.95605,-0.52517 2.48113,-0.52517 0.52507,0 1.42917,-0.25183 2.0091,-0.55962 l 1.05441,-0.55962 -0.66146,0.71718 c -0.3638,0.39445 -1.07817,0.94999 -1.5875,1.23453 l -0.92604,0.51734 0.91454,-0.15005 c 0.50299,-0.0825 1.33255,-0.35647 1.84346,-0.60876 z m -9.357579,-7.52904 c -0.323604,-0.46201 -0.411878,-1.35669 -0.411878,-4.17446 0,-4.71141 0.0326,-4.7625 3.038817,-4.7625 3.09978,0 3.0466,-0.0828 3.0466,4.74039 0,4.81981 0.0229,4.78461 -3.11469,4.78461 -1.918683,0 -2.190766,-0.0625 -2.558849,-0.58804 z m 3.689159,-4.17446 v -3.04271 l -0.99218,-0.0821 -0.99219,-0.0821 v 3.01458 c 0,1.65802 0.085,3.0996 0.18893,3.20351 0.10391,0.10391 0.55039,0.15352 0.99219,0.11024 l 0.80325,-0.0787 z m 3.71917,4.17446 c -0.3236,-0.46201 -0.41187,-1.35669 -0.41187,-4.17446 0,-4.71141 0.0326,-4.7625 3.03881,-4.7625 3.10143,0 3.0466,-0.0857 3.0466,4.7625 0,4.8482 0.0548,4.7625 -3.0466,4.7625 -1.98904,0 -2.25708,-0.06 -2.62694,-0.58804 z m 3.68917,-4.17446 v -3.04271 l -0.99219,-0.0821 -0.99219,-0.0821 v 3.01458 c 0,1.65802 0.085,3.0996 0.18893,3.20351 0.10391,0.10391 0.5504,0.15352 0.99219,0.11024 l 0.80326,-0.0787 z m -12.038544,11.4742 c 0,-0.0628 -0.354609,-1.03372 -0.78802,-2.15759 -0.889129,-2.30559 -1.75817,-5.52786 -2.016923,-7.47843 -0.09551,-0.71996 -0.264002,-1.30901 -0.374437,-1.30901 -0.110435,0 -1.002119,0.37498 -1.981519,0.8333 -0.9794,0.45832 -2.12359,0.84527 -2.542644,0.8599 -0.492427,0.0172 -0.76213,0.16845 -0.76252,0.42766 -0.0012,0.77739 3.519971,6.40058 5.041632,8.05139 0.929145,1.008 1.076733,1.07368 2.210033,0.98355 0.667919,-0.0531 1.214398,-0.14797 1.214398,-0.21077 z M 104.25994,127.171 c 1.01732,-1.10149 2.162,-2.89402 3.22875,-5.05611 0.52841,-1.07099 0.96074,-1.97923 0.96074,-2.0183 0,-0.0391 -0.62508,-0.49467 -1.38906,-1.01243 -1.51024,-1.02351 -3.5519,-1.69626 -3.94743,-1.30073 -0.13316,0.13316 -0.36393,1.7194 -0.51282,3.52499 -0.14889,1.80559 -0.3699,3.87392 -0.49112,4.59629 -0.18187,1.08378 -0.14415,1.37141 0.21574,1.64523 0.67726,0.51527 1.2047,0.41199 1.9352,-0.37894 z m 6.19897,-10.47358 1.26692,-1.14702 -0.70534,-1.16809 c -0.38794,-0.64245 -1.07272,-1.5848 -1.52174,-2.09413 -0.74897,-0.84956 -0.80297,-0.87141 -0.65388,-0.26458 0.0894,0.3638 -0.31326,-0.1728 -0.89475,-1.19245 -0.58149,-1.01965 -1.41909,-2.20058 -1.86134,-2.62428 l -0.80409,-0.77036 -0.36816,0.90448 c -0.44526,1.09389 -1.08579,4.44378 -0.88759,4.64198 0.078,0.078 0.39016,0.009 0.69367,-0.15349 0.64311,-0.34419 0.64308,-0.3443 0.25374,1.20192 -0.25497,1.01258 -0.23388,1.25474 0.14582,1.67429 0.24414,0.26978 0.81606,0.56494 1.27093,0.65591 0.76801,0.15361 0.79225,0.19085 0.33955,0.52188 -0.47223,0.3453 -0.47162,0.36568 0.0193,0.65066 0.27876,0.16181 0.94179,0.29782 1.47342,0.30225 0.77489,0.006 1.21785,-0.21944 2.23351,-1.13897 z m -14.709485,-15.6675 c 0,-0.52427 0.2463,-1.101061 0.66146,-1.549031 0.63031,-0.680112 0.95651,-2.222962 0.39688,-1.877082 -0.14552,0.0899 -0.26459,0.37317 -0.26459,0.62942 0,0.25624 -0.35718,0.865972 -0.79375,1.354952 -0.43656,0.488981 -0.79737,1.016441 -0.80179,1.172141 -0.004,0.15569 -0.12941,0.0747 -0.27773,-0.17995 -0.30851,-0.52967 -1.0517,-0.607211 -1.50218,-0.15673 -0.23199,0.23199 -0.41397,0.21691 -0.75024,-0.0622 -0.52209,-0.433301 -1.21816,-0.485451 -1.49265,-0.11184 -0.10977,0.14941 -0.19615,0.063 -0.19844,-0.19844 -0.002,-0.254661 -0.12893,-0.463021 -0.28157,-0.463021 -0.15264,0 -0.50721,-0.50601 -0.78794,-1.124482 -0.50626,-1.11532 -0.51047,-1.11781 -0.51623,-0.30559 -0.003,0.49071 0.20787,1.012272 0.52737,1.301412 0.29325,0.26539 0.60324,0.920681 0.68888,1.456221 l 0.1557,0.9737 2.61841,-0.0121 2.61841,-0.0121 z"
       id="path1"
       sodipodi:nodetypes="ssssssssssscssssssssssscscccsscsssssscssscsssssscsssscsssssssssssssssssscsscsssssssssssssscsssscscccssssssssscccccccsscscssssssssssssscsssssssssssssssssssssssscsssscscssssssscccssssssssssccssscsssssssssssssscsssssssscssscssssscccssssssssssssssssssssssscsssscsssccssssscsssccsscsssscscssccssscccsccssscsscscsssscsssssscsssssssscsccssscssssscsccssssssssssscsssssssssssssssssssscssscssccccssssssccccsssccssssssccccsssccsssssscssssssssssssccssssscsscssssscscsscsscsscscsscsscccs" /></g></svg>
