<svg width="0" height="0" class="hidden">
  <symbol fill="none" xmlns="http://www.w3.org/2000/svg" viewBox="0 0 20 20" id="clock">
    <path d="M10 5V10H15M10 19C5.02944 19 1 14.9706 1 10C1 5.02944 5.02944 1 10 1C14.9706 1 19 5.02944 19 10C19 14.9706 14.9706 19 10 19Z" stroke="#F7E10E" stroke-width="2" stroke-linecap="round" stroke-linejoin="round"></path>
  </symbol>
  <symbol fill="none" xmlns="http://www.w3.org/2000/svg" viewBox="0 0 18 20" id="calendar">
    <path d="M1 7H17M1 7V15.8002C1 16.9203 1 17.4801 1.21799 17.9079C1.40973 18.2842 1.71547 18.5905 2.0918 18.7822C2.5192 19 3.07899 19 4.19691 19H13.8031C14.921 19 15.48 19 15.9074 18.7822C16.2837 18.5905 16.5905 18.2842 16.7822 17.9079C17 17.4805 17 16.9215 17 15.8036V7M1 7V6.2002C1 5.08009 1 4.51962 1.21799 4.0918C1.40973 3.71547 1.71547 3.40973 2.0918 3.21799C2.51962 3 3.08009 3 4.2002 3H5M17 7V6.19691C17 5.07899 17 4.5192 16.7822 4.0918C16.5905 3.71547 16.2837 3.40973 15.9074 3.21799C15.4796 3 14.9203 3 13.8002 3H13M5 3H13M5 3V1M13 3V1M12 11L8 15L6 13" stroke="#F7E10E" stroke-width="2" stroke-linecap="round" stroke-linejoin="round"></path>
  </symbol>
  <symbol fill="none" xmlns="http://www.w3.org/2000/svg" viewBox="0 0 16 20" id="location-empty">
    <path d="M1 7.92285C1 12.7747 5.24448 16.7869 7.12319 18.3252C7.39206 18.5454 7.52811 18.6568 7.72871 18.7132C7.88491 18.7572 8.1148 18.7572 8.271 18.7132C8.47197 18.6567 8.60707 18.5463 8.87695 18.3254C10.7557 16.7871 14.9999 12.7751 14.9999 7.9233C14.9999 6.08718 14.2625 4.32605 12.9497 3.02772C11.637 1.72939 9.8566 1 8.00008 1C6.14357 1 4.36301 1.7295 3.05025 3.02783C1.7375 4.32616 1 6.08674 1 7.92285Z" stroke="#F7E10E" stroke-width="2" stroke-linecap="round" stroke-linejoin="round"></path>
    <path d="M6 7C6 8.10457 6.89543 9 8 9C9.10457 9 10 8.10457 10 7C10 5.89543 9.10457 5 8 5C6.89543 5 6 5.89543 6 7Z" stroke="#F7E10E" stroke-width="2" stroke-linecap="round" stroke-linejoin="round"></path>
  </symbol>
  <symbol fill="none" xmlns="http://www.w3.org/2000/svg" viewBox="0 0 16 17" id="star-fil">
    <path d="M5.73728 6.60819L7.64972 3.16579L8.03221 2.40082L10.3271 6.60819L13.0046 6.99068L14.5345 7.75566L11.4746 10.8156L11.8571 13.1105V15.4054L7.64972 13.1105L3.82484 15.0229L4.20733 10.4331L1.52991 7.37317L5.73728 6.60819Z" fill="#7E8E9D"></path>
    <g clip-path="url(#clip0_15_1659)">
      <path d="M1.55664 7.76215C1.34781 7.56903 1.46125 7.2199 1.74371 7.18641L5.74609 6.71168C5.86121 6.69803 5.96121 6.62574 6.00976 6.52047L7.69792 2.86061C7.81705 2.60232 8.18425 2.60227 8.30338 2.86056L9.99154 6.52039C10.0401 6.62566 10.1394 6.69815 10.2546 6.7118L14.2572 7.18641C14.5396 7.2199 14.6527 7.56913 14.4439 7.76226L11.4852 10.4989C11.4001 10.5776 11.3622 10.6948 11.3848 10.8085L12.17 14.7616C12.2254 15.0406 11.9285 15.2568 11.6803 15.1178L8.16343 13.1487C8.06227 13.0921 7.93938 13.0924 7.83822 13.149L4.32096 15.1173C4.07275 15.2563 3.77529 15.0406 3.83073 14.7616L4.6161 10.8087C4.63869 10.695 4.60089 10.5776 4.51578 10.4989L1.55664 7.76215Z" stroke="#7E8E9D" stroke-width="1.72772" stroke-linecap="round" stroke-linejoin="round"></path>
    </g>
    <defs>
      <clipPath id="clip0_15_1659">
        <rect width="16" height="16" fill="white" transform="translate(0 0.870972)"></rect>
      </clipPath>
    </defs>
  </symbol>
  <symbol id="boots" viewBox="0 0 443 960" shape-rendering="geometricPrecision" text-rendering="geometricPrecision" project-id="cdf7c541012540368d93cc389e3a90f8" export-id="541b0fbeaae64ce7b2243a359448cc19" cached="false"><g transform="matrix(0 1 1 0-258.301788 0.00202)"><g><g><path d="M430.909,298.665c-10.793-8.722-20.03-15.861-26.745-20.781-31.323-22.935-49.135-21.326-69.512,2.158-.238.287-17.732,21.368-48.678,57.362c37.449-1.613,68.72-13.679,91.22-26.248c20.111-11.214,30.986-13.168,53.715-12.491Z"/><path d="M37.37,637.379c1.373,5.614,7.2,10.32,12.976,10.52c9.629.333,25.305.871,44.434,1.514l6.954,28.913c1.165,4.845,6.149,8.771,11.132,8.771h35.443c4.983,0,9.967-3.928,11.132-8.771l6.394-26.586c13.213.42,26.633.84,39.812,1.239l6.58,27.36c1.165,4.845,6.149,8.771,11.132,8.771h35.443c4.983,0,9.967-3.928,11.132-8.771l6.103-25.376c11.983.305,23.965.672,35.945,1.077l6.085,25.305c1.166,4.845,6.148,8.772,11.133,8.772h35.443c4.981,0,9.967-3.929,11.132-8.772l5.436-22.603c63.954,2.74,127.894,5.853,191.897,6.977l6.542,27.205c1.166,4.845,6.148,8.771,11.132,8.771h35.444c4.982,0,9.967-3.928,11.132-8.771l6.465-26.883c12.657-.119,25.312-.343,37.965-.683l6.388,26.559c1.166,4.845,6.148,8.771,11.132,8.771h35.442c4.983,0,9.968-3.928,11.133-8.771l7.175-29.834c11.26-.766,22.516-1.657,33.753-2.722l7.83,32.557c1.165,4.845,6.148,8.771,11.132,8.771h35.443c4.982,0,9.967-3.928,11.132-8.771l10.248-42.61c14.731-2.579,29.396-5.537,43.967-8.977c14.595-3.446,29.079-7.379,43.404-11.82c5.521-1.711,9.974-7.866,9.98-13.645.019-15.745.051-43.77.051-44.367c0-8.306-3.471-18.775-7.436-25.977-9.09-16.508-28.002-24.59-44.84-30.786-25.477-9.375-52.109-15.588-78.459-21.942-11.249-2.713-22.428-5.542-33.585-8.609-16.737-4.601-33.427-9.37-50.129-14.093-33.555-9.487-66.788-19.721-99.341-31.852c3.29-8.886-1.223-20.996-13.559-20.996-7.6,0-12.22,4.602-13.89,10.21-10.755-4.451-21.428-9.139-31.992-14.132c5.078-8.92.908-23.264-12.517-23.264-7.689,0-12.33,4.712-13.948,10.411-11.324-5.628-22.763-11.531-33.94-17.865c6.526-8.694,2.697-24.765-11.515-24.765-7.204,0-11.735,4.134-13.611,9.341-10.104-6.782-19.704-14.062-28.464-21.979-6.207-5.608-12.053-11.656-19.068-16.296-20.469-13.535-48.863-7.601-68.967,3.757-30.699,17.314-99.872,38.339-158.737,20.467-24.736-7.51-48.536-20.604-66.569-39.315-9.182-9.527-16.161-20.369-22.466-31.925-5.51-10.1-11.723-20.819-24.309-22.393-24.824-3.104-47.586,31.792-61.179,48.147C22.498,341.517,3.852,385.088,0.534,430.44c-3.155,43.142,8.291,88.042,17.902,129.854c5.931,25.789,12.65,51.379,18.934,77.085ZM47.993,367.924c86.626,59.598,216.048,95.763,371.565,125.382c157.008,29.909,224.76,115.965,238.396,135.531-11.979-.195-23.956-.497-35.93-.889-23.655-.774-47.295-1.871-70.928-3.174-58.35-3.215-116.643-7.675-174.938-11.583-4.41-.273-8.788-.544-13.149-.812-24.576-52.172-73.598-84.416-123.958-108.656-50.977-24.538-111.077-39.56-152.127-80.175-12.568-12.435-23.289-26.624-32.127-41.925-.991-1.719-8.06-11.512-6.804-13.699Z"/></g></g></g></symbol>
</svg>