<?xml version="1.0" encoding="iso-8859-1"?>
<!-- Uploaded to: SVG Repo, www.svgrepo.com, Generator: SVG Repo Mixer Tools -->
<!DOCTYPE svg PUBLIC "-//W3C//DTD SVG 1.1//EN" "http://www.w3.org/Graphics/SVG/1.1/DTD/svg11.dtd">
<svg fill="#000000" version="1.1" id="Capa_1" xmlns="http://www.w3.org/2000/svg" xmlns:xlink="http://www.w3.org/1999/xlink" 
	 width="800px" height="800px" viewBox="0 0 462.744 462.743"
	 xml:space="preserve">
<g>
	<g>
		<path d="M53.295,96.938c-31.987,4.921-39.367,35.804-37.311,63.399c0.245,3.236,1.655,5.957,3.775,7.805
			c12.121,31.133,58.029,74.061,69.258,88.772c2.721,3.574,6.961,6.416,11.718,4.776c9.195-4.929,18.771-4.929,28.733,0
			c4.488,1.739,9.019-0.85,11.453-4.677c7.137,3.543,13.347,8.264,18.871,14.351c0.418,2.453,0.823,4.917,1.18,7.306
			c0,0-38.75,1.383-16.605,29.066c22.149,27.675,56.743,27.675,56.743,27.675s-20.756,5.534-8.307,19.38
			c12.459,13.838,0,0.689,0,36.676c0,35.987,16.606,43.593,16.606,43.593s-45.672,0-45.672,27.684h4.809h125.645h4.816
			c0-27.684-45.676-27.684-45.676-27.684s16.603-7.614,16.603-43.593s-12.455-22.838,0-36.676
			c12.459-13.846-8.304-19.38-8.304-19.38s34.601,0,56.741-27.675c22.149-27.684-16.599-29.066-16.599-29.066
			c0.353-2.396,0.762-4.853,1.174-7.306c5.526-6.087,11.738-10.8,18.875-14.351c2.429,3.836,6.961,6.416,11.453,4.677
			c9.967-4.929,19.549-4.929,28.733,0c4.753,1.64,8.993-1.202,11.722-4.776c11.225-14.695,57.13-57.631,69.249-88.772
			c2.124-1.848,3.542-4.561,3.782-7.805c2.044-27.587-5.329-58.479-37.312-63.399c-7.927-1.216-32.797,1.671-52.998,1.444
			c1.863-4.719,3.679-9.215,5.418-13.493c3.062-1.603,6.095-3.166,9.177-4.853c7.798-4.27,5.734-13.519,0.072-17.422
			c5.811-13.738,9.542-21.987,9.542-21.987C364.823,13.645,299.85,0.134,234.656,0.018c-0.227,0-0.457-0.016-0.684-0.016
			c-0.87-0.006-1.735,0.008-2.604,0.008c-0.872,0.008-1.737-0.014-2.607-0.008c-0.227,0-0.457,0.016-0.683,0.016
			C162.887,0.134,97.91,13.645,82.075,40.627c0,0,3.723,8.249,9.55,21.987c-5.67,3.903-7.736,13.152,0.06,17.422
			c3.078,1.687,6.122,3.25,9.177,4.853c1.743,4.278,3.55,8.774,5.424,13.493C86.088,98.608,61.218,95.721,53.295,96.938z
			 M348.18,119.729c29.555-1.342,65.638-13.387,75.512,14.812c-4.352-0.751-9.438-1.162-15.316-1.192
			c-7.935-0.04-12.84,8.822-8.961,15.611c6.004,10.515,12.94,15.1,22.486,18.248c-4.585,18.368-38.019,50.486-46.467,58.853
			c-6.327,6.26-13.4,12.23-18.822,19.324c5.719-7.482,0.04-8.885-7.727-8.22c-1.903-4.66-7.639-8.047-12.812-6.921
			c-9.982,2.16-18.707,5.391-26.565,9.706C319.247,199.816,334.362,156.045,348.18,119.729z M114.585,119.729
			c13.818,36.315,28.928,80.086,38.662,120.221c-7.858-4.315-16.579-7.546-26.565-9.706c-5.174-1.113-10.913,2.261-12.802,6.921
			c-7.774-0.657-13.451,0.737-7.736,8.22c-5.416-7.094-12.495-13.064-18.817-19.324c-8.444-8.367-41.882-40.485-46.466-58.853
			c9.548-3.148,16.487-7.732,22.486-18.248c3.875-6.789-1.024-15.657-8.967-15.611c-5.879,0.03-10.95,0.441-15.316,1.192
			C48.95,106.343,85.034,118.387,114.585,119.729z"/>
	</g>
</g>
</svg>